<svg width="106" height="78" viewBox="0 0 106 78" fill="none" xmlns="http://www.w3.org/2000/svg">
<path fill-rule="evenodd" clip-rule="evenodd" d="M101.522 30.5358C100.99 30.6313 100.496 30.2912 100.543 30.022C100.587 29.7211 100.81 29.5853 100.467 29.4104C100.035 29.1828 100.128 28.7742 99.6507 28.3987C99.3423 28.154 99.4402 27.9632 99.45 27.5093C99.45 27.2964 98.9029 27.4408 98.6312 27.4188C97.9642 27.3637 98.5908 26.4511 98.9384 26.122C99.3851 25.7012 99.8159 25.9703 100.392 25.7024C100.969 25.4345 99.8685 25.3929 100.443 24.8791C100.587 24.7507 101.079 24.4766 101.021 24.3225C100.812 23.7634 101.446 23.2496 100.673 23.0404C100.474 22.9878 100.386 22.8227 100.189 22.7627C99.5271 22.5584 99.3398 22.534 99.2407 22.9707C99.0657 23.739 99.8465 23.6435 99.6079 24.2307C99.4745 24.5623 98.6545 24.6296 98.1943 24.4607C97.5738 24.232 97.5469 24.0326 96.7807 23.8491C96.438 23.7671 96.476 23.5396 96.4515 23.2533C96.9655 23.1114 97.2666 23.1652 97.3241 22.797C97.4037 22.2856 97.4294 22.2477 97.1626 22.2171C96.673 22.1584 96.602 22.2318 96.4625 22.3664C96.323 22.5009 96.2716 22.5988 96.3328 22.7334C96.4551 23.0184 96.1321 23.0441 96.0084 23.2582C95.3794 23.8527 95.6706 23.6374 95.1334 23.772C95.0293 23.7977 94.9828 23.8515 95.011 23.9151C94.9339 23.9849 94.1004 24.7959 93.8605 24.4938C93.1886 23.6448 93.0736 23.5946 93.1005 23.2704C93.1066 23.2019 93.1556 22.5902 93.0821 22.4997C93.0136 22.5156 92.8839 22.5328 92.8851 22.5487C92.8912 22.8117 92.5106 22.9768 92.3123 23.186C92.2573 23.2435 91.7298 23.3157 91.3956 23.2117C90.7592 23.016 90.7445 22.9976 90.6491 23.0392C90.3602 23.1689 89.741 23.1615 89.8413 23.3989C89.9287 23.3629 90.0243 23.3517 90.1176 23.3666C90.2109 23.3815 90.2982 23.4219 90.37 23.4833C90.2282 23.5419 90.0689 23.5419 89.927 23.4833C89.8168 23.4392 89.878 23.3769 89.7936 23.4282C89.3456 23.6998 89.0593 23.6362 88.3249 23.6081C88.1915 23.5053 88.101 23.3952 88.145 23.2655C88.3825 23.2337 88.3898 23.1089 88.4938 23.0209C88.7802 22.7884 88.6162 22.9866 90.0114 22.682C90.2782 22.6245 90.6711 22.8875 90.8682 22.5242C90.9538 22.37 91.1288 22.3554 91.8558 22.1902C92.5326 22.2086 92.8349 22.2489 92.7468 22.085C92.7835 21.8697 92.6856 21.6483 92.8802 21.4428C93.4101 21.3755 93.9303 21.3437 94.4088 21.5321C94.4664 21.5541 94.6609 21.4611 94.6536 21.4097C94.6265 21.2831 94.615 21.1537 94.6193 21.0244C94.7209 20.3944 94.1959 20.6574 94.2718 20.2463C94.3941 19.5637 94.5643 19.5123 94.2558 19.4671C94.1834 19.4561 94.1095 19.4611 94.0392 19.4817C93.852 19.7619 93.568 20.0322 93.7712 20.3491C93.9046 20.5595 93.0785 20.9791 92.3686 20.8531C92.2683 20.7699 92.338 20.814 91.1105 20.6341C91.1009 20.5785 91.0765 20.5264 91.0399 20.4834C91.0033 20.4403 90.9558 20.4079 90.9024 20.3895C90.9563 19.9711 90.5818 20.332 90.2758 20.3528C89.7862 20.3858 88.8414 20.3968 90.0763 20.6867C90.0481 20.8568 90.3639 20.9424 90.43 21.0929C90.4851 21.2152 90.3774 21.3718 90.1583 21.4207C89.7324 21.5162 88.2539 21.6789 88.1254 21.6263C87.9969 21.5737 87.7791 21.5418 87.7913 21.2482C87.8611 19.642 88.4388 19.7497 87.8207 19.4903C87.1733 19.2224 86.7106 19.4903 86.4744 19.1294C86.2651 18.8089 85.4268 18.256 86.2957 17.1953C86.5405 16.9005 87.0876 16.7561 87.3385 16.476C87.4272 16.4201 87.5243 16.3788 87.6261 16.3537C88.1328 16.1653 88.1156 16.7549 88.5489 16.5445C89.1939 16.2301 89.2979 16.3219 89.8425 16.5922C90.1877 16.7647 90.3921 16.4833 90.6993 16.191C91.0064 15.8986 90.1644 15.8766 90.2978 15.5034C90.381 15.2698 89.5892 15.8863 89.2747 15.3481C89.1921 15.2374 89.1413 15.1063 89.1278 14.9688C89.1462 14.6385 88.9332 14.3303 88.8402 14.0122C88.8218 13.9547 88.5232 13.9204 88.4375 14.0036C88.0434 14.3865 87.336 13.9253 87.0056 13.8434C86.5797 13.7369 86.3704 13.8005 85.9763 13.6513C85.5822 13.5021 85.5847 13.8348 84.8528 13.7528C84.6814 13.7333 84.5248 13.688 84.4966 13.5975C84.414 13.3912 84.3641 13.1732 84.3486 12.9515C84.3486 10.9734 84.7426 11.3612 84.4379 10.889C84.2054 10.5318 83.4147 10.889 82.7746 10.6333C82.7394 10.6169 82.7009 10.6086 82.662 10.6089C82.3047 10.6492 82.3059 10.8841 81.5606 10.681C81.2497 10.5966 81.1603 10.292 80.5668 10.4364C79.9964 10.5734 80.0478 10.681 79.7101 11.3221C79.5877 11.5667 79.0981 11.5887 78.9684 11.5251C77.3859 10.7508 78.2341 11.4664 77.0799 11.694C76.6932 11.771 76.7544 11.9142 76.0604 11.8383C75.5795 11.7845 75.7263 12.2396 75.8328 12.4916C75.8805 12.6029 76.14 12.6775 76.8229 12.8427C77.2904 12.9552 77.7898 12.7778 78.4801 13.0127C78.7701 13.1118 79.4408 12.8414 79.6611 13.2941C79.8814 13.7467 78.6098 13.2941 79.0283 13.8054C79.2034 14.0183 79.1862 14.0403 79.3845 14.0122C79.6097 13.9804 79.6758 13.8666 79.8251 13.7969C80.0772 13.6745 80.5337 13.7161 80.6659 13.8764C80.8654 14.1211 81.0575 14.3535 81.5128 14.5015C81.5484 14.5158 81.5797 14.5391 81.6035 14.5691C81.6273 14.5992 81.6429 14.6349 81.6487 14.6728C81.7711 15.3933 80.6439 15.1352 81.0221 15.4765C81.0612 15.5108 81.1028 15.5805 81.0735 15.5989C80.8287 15.7212 80.7883 15.9096 80.6169 16.0564C80.4456 16.2032 79.9634 16.2289 79.7749 16.0857C79.6807 16.016 79.6354 15.9194 79.5167 15.8668C79.1728 15.7163 79.3368 15.4202 79.4261 15.3261C79.5791 15.1658 79.5057 15.1413 78.447 14.7719C77.9893 14.6116 78.141 14.4257 78.0958 13.8593C78.0884 13.7687 77.8143 13.7174 77.7286 13.77C76.9465 14.2666 76.6185 13.5681 76.7213 14.9603C76.7397 15.1939 77.4642 15.216 77.5927 15.2049C78.0407 15.1829 78.8631 15.3628 78.6624 15.5719C78.54 15.7041 78.2806 15.9181 78.1973 16.027C78.1141 16.1359 79.0859 16.9286 80.0552 16.6962C81.1004 16.4454 81.8592 16.5372 82.2582 16.6962C83.0157 17.0045 83.482 16.8883 83.6656 17.1855C84.5297 18.5312 82.432 18.4199 82.5005 19.2175C82.5201 19.4475 82.4295 20.2219 82.3671 20.3185C82.2618 20.491 81.7552 20.5962 81.3097 20.4922C81.0208 20.4298 81.1432 20.2109 81.1432 19.9601C81.1726 19.1918 82.0403 19.2762 81.6058 18.6584C81.0735 17.9024 81.7588 17.8559 81.5508 17.5171C80.9866 16.5922 80.4493 17.3886 79.5461 17.106C79.3098 17.1403 79.0638 17.1623 78.8436 17.2149C78.5168 17.2944 78.4531 17.555 77.8069 17.5012C77.3969 17.4657 76.9759 17.3042 76.8082 17.4779C76.6406 17.6516 76.386 17.8009 76.3285 18.0015C76.2244 18.0015 76.1033 18.0492 76.0237 17.9624C75.7104 17.6247 75.4118 18.5606 74.3629 17.9305C74.5098 17.7556 74.5257 17.4804 74.2002 17.2418C73.8648 17.1109 73.6127 17.0583 73.669 16.8552C73.8599 16.1665 74.0166 16.6681 74.4963 16.6106C74.9577 16.558 75.3702 16.4882 75.4999 16.2044C75.5317 16.1335 75.7985 16.0001 75.7018 15.9181C75.5219 15.7677 75.3665 16.0784 74.7068 16.0466C74.4284 16.0124 74.1464 16.0219 73.8709 16.0747C73.8036 16.0931 73.6347 15.994 73.6457 15.9426C73.6568 15.8912 73.7522 15.8019 73.7106 15.7542C73.5882 15.6184 73.4524 15.4924 73.5148 15.3322C73.5417 15.2649 72.9714 15.271 73.0828 15.3958C73.1941 15.5206 73.3275 15.616 73.1072 15.7481C72.9751 15.8264 72.9163 15.9389 72.7951 16.0258C72.5883 16.1751 71.9066 16.1065 71.854 15.8423C71.712 15.1144 71.6496 14.975 72.018 14.8526C72.2738 14.7682 72.5075 14.7499 72.5075 14.5982C72.5075 14.3694 72.7988 14.2825 72.8208 14.1822C72.8392 14.1052 72.5137 13.825 72.3643 13.8311C72.134 13.832 71.9054 13.7905 71.69 13.7088C71.3228 13.6036 70.5408 13.9155 70.5518 13.2831C70.5518 12.9723 70.5897 12.9026 70.7525 12.8781C71.0095 12.8378 71.0266 12.9919 71.1331 13.0763C71.4109 13.2978 71.6569 13.0042 71.9017 12.8402C72.1905 12.6494 72.0988 12.5956 72.0559 12.0903C72.0278 11.7735 71.4685 12.0206 71.2469 11.6781C69.9863 9.72071 69.1492 11.1581 68.8824 10.029C68.7931 9.66199 68.1089 9.81246 67.7662 9.61427C67.4015 9.41034 66.9823 9.32483 66.5668 9.36961C66.4076 9.36222 66.2494 9.3397 66.0944 9.30232C65.4519 9.22158 65.939 9.66933 64.4556 9.99718C64.0224 10.0938 64.1289 10.2003 64.3541 11.0223C64.3736 11.0921 64.7212 11.3661 64.9378 11.1447C64.9733 11.1055 64.966 11.0444 65.0198 11.0223C65.0338 11.0161 65.0489 11.0127 65.0642 11.0123C65.0795 11.0119 65.0947 11.0146 65.1089 11.0202C65.1232 11.0258 65.1362 11.0341 65.1471 11.0448C65.1581 11.0555 65.1668 11.0682 65.1728 11.0823C65.2952 11.5092 66.0907 11.2205 66.431 11.4591C66.6892 11.6377 66.491 11.9374 66.2303 11.9582C64.4226 12.1001 65.2512 11.2805 64.3749 12.1356C64.2525 12.2579 64.403 12.22 64.9146 12.4133C65.469 12.62 65.6967 13.8593 64.9146 13.7467C63.8902 13.5987 63.8694 13.5522 63.5047 13.6244C62.801 13.7638 62.7997 13.3296 61.7704 13.2439C61.3225 13.2072 61.4131 12.9051 61.3886 12.8158C61.2772 12.4231 60.538 12.4377 60.4095 12.4206C60.1929 12.3937 60.2076 12.4121 59.9199 11.8689C59.8796 11.793 60.3202 11.7698 60.3042 11.8212C60.2296 12.0658 60.7436 12.1148 60.8782 12.2946C61.1328 12.6396 61.6126 12.1258 62.6712 12.2799C62.801 12.2983 63.0763 12.2151 62.801 12.0805C62.621 11.9937 62.3946 11.9313 62.32 11.793C62.1413 11.4652 61.0276 11.7221 60.9039 11.2266C60.8232 10.9061 61.1267 10.637 61.2638 10.3483C61.3666 10.1293 61.7166 9.99229 62.0385 9.85894C62.0678 9.84671 62.1339 9.75496 62.107 9.73661C61.7105 9.55555 61.5208 9.46258 61.4596 9.53109C61.123 9.91032 60.3263 9.89075 60.2565 10.2945C60.2565 10.3165 60.1341 10.336 60.057 10.3483C59.9518 10.3666 59.7229 9.90665 59.6666 9.81246C59.6348 9.76108 59.4512 9.75496 59.4512 9.85772C59.4512 10.0351 59.5932 10.6296 58.7169 10.4694C58.5884 10.4449 57.4367 10.1538 57.411 9.68033C57.3963 9.40019 57.1809 9.13106 57.2519 8.84235C57.2715 8.76161 57.1601 8.59768 57.0952 8.5304C56.2716 8.80442 57.0952 9.93112 56.1847 9.77331C55.4332 9.64363 54.8555 9.58736 54.9351 9.19712C54.951 9.12127 55.246 8.92309 54.7111 8.84969C54.109 8.7665 54.0282 8.7665 53.8972 8.83378C53.5558 9.01239 54.2901 9.06622 53.9278 9.42833C53.7381 9.61794 53.6402 9.72927 53.7981 9.85283C53.956 9.97638 54.0576 10.1183 54.3354 10.2003C54.5794 10.2565 54.797 10.3941 54.9522 10.5905C55.1688 10.9159 56.4013 11.152 55.1615 11.5692C54.7943 11.6915 54.2363 11.5361 53.7467 11.7111C53.6182 11.7576 52.9071 11.8334 52.6599 11.5887C52.5852 11.5129 52.0969 11.4077 52.1006 11.2695C52.1006 11.0554 51.9488 10.9025 51.6221 10.7728C51.4923 10.7214 50.8131 10.2969 51.6135 9.9299C51.8901 9.80756 51.3406 9.50907 51.0272 9.6314C50.7084 9.76303 50.3674 9.83238 50.0224 9.8357C49.5684 9.84549 49.2783 10.1207 49.375 10.363C49.6137 10.9746 49.3138 10.9502 49.61 11.4481C49.7128 11.623 49.0274 11.5704 49.1878 11.793C49.4178 12.1148 49.3371 12.6738 48.6835 12.6653C48.2025 12.6592 47.7118 12.7448 47.2344 12.6384C47.173 12.6428 47.1134 12.6616 47.0607 12.6934C47.4511 13.2439 47.2736 13.6611 47.5624 13.8911C47.8513 14.1211 48.3604 14.3266 48.0459 14.7107C47.7313 15.0948 47.3483 15.4447 46.6176 15.545C45.4243 15.7016 45.5345 15.2661 44.537 15.2649C43.7391 15.2649 44.2531 14.7755 43.6705 14.8379C43.3242 14.8722 42.7147 14.9126 42.8138 15.0899C42.853 15.1572 43.646 15.7616 42.6253 15.7958C42.1945 15.8093 41.7686 15.8142 41.5924 15.5573C41.5043 15.4288 40.858 14.7352 40.4309 14.9456C40.1861 15.0679 41.0612 15.0569 40.8152 15.3958C40.5863 15.709 39.3637 15.5695 39.9108 15.0777C39.1764 14.9554 39.2988 14.537 39.4922 14.4122C39.7247 14.263 40.1617 14.389 40.4162 14.4122C40.7711 14.4477 40.847 14.3046 41.12 14.1052C41.3194 13.9608 41.5667 13.9571 41.6181 14.0171C42.0293 14.4942 43.7256 14.3841 43.3131 14.0978C43.121 13.9645 41.8445 13.3332 43.1039 12.9589C43.3584 12.8818 43.7856 12.8366 43.9141 12.8109C44.1221 12.7656 44.2531 12.5589 44.1038 12.4781C42.9533 11.8567 43.9398 11.4309 42.1627 11.2866C41.8384 11.2597 41.8237 11.1116 41.5948 10.752C41.5431 10.7301 41.4876 10.7188 41.4314 10.7188C41.3753 10.7188 41.3197 10.7301 41.268 10.752C40.8642 11.1116 41.0233 11.3025 40.5998 11.4982C40.5068 11.541 40.5484 11.6291 40.6377 11.6744C41.1775 11.9435 41.0637 11.7392 41.9473 11.9668C42.4442 12.0891 42.3389 12.5699 41.8041 12.6457C41.366 12.7069 41.4051 12.3668 40.7614 12.4683C39.3478 12.6934 39.7039 11.9178 39.0345 10.9795C38.835 10.6994 38.1472 10.8719 38.3001 11.0113C38.8582 11.5251 39.0687 11.6475 39.1422 11.9423C39.1887 12.1295 39.4726 12.4696 39.4922 12.6298C39.5681 13.2415 39.0173 13.0922 38.7579 13.2904C38.6465 13.3736 39.1042 13.5473 38.0235 13.7797C38.212 13.9143 38.551 13.8874 38.7848 13.9792C38.9672 14.0501 39.1703 14.2165 39.114 14.3082C38.9488 14.5725 38.9696 14.6508 38.0407 14.7474C37.646 14.7923 37.2464 14.7398 36.8768 14.5945C36.6406 14.4979 36.8768 14.3498 36.8082 14.2275C36.7164 14.0636 36.9025 13.8605 36.5794 13.8385C36.4325 13.8311 36.2391 13.8018 35.7838 13.6354C35.79 13.6452 35.7838 13.6611 35.741 13.6807C35.7305 13.6861 35.7219 13.6947 35.7164 13.7052C35.7109 13.7157 35.7088 13.7276 35.7104 13.7394C35.7104 13.8213 35.8499 13.8336 35.9454 13.8617C36.3603 14.0134 36.4545 14.2446 36.4851 14.4893C36.5292 14.8563 34.6273 14.745 34.3519 14.0281C34.2197 13.6819 33.6996 13.792 33.5441 13.5779C33.166 13.0555 33.1904 13.0139 33.2994 12.8317C33.3447 12.7546 33.7094 12.5735 33.5515 12.4182C33.3287 12.198 33.4389 11.8848 33.1843 11.9044C32.8527 11.9288 32.5797 11.7441 32.2383 11.8297C32.144 11.8542 32.0828 11.8518 32.0314 11.8016C31.7732 11.5472 31.2763 11.4211 30.7048 11.2511C30.586 11.2266 30.4624 11.2487 30.3596 11.313C30.2568 11.3773 30.1827 11.4786 30.1528 11.5961C30.1234 11.7294 30.7402 11.7918 30.4465 11.8713C30.3094 11.908 30.1197 11.9093 30.0634 12.0059C29.9325 12.2298 29.6228 12.302 29.2128 12.3056C29.0794 12.3056 28.8983 12.5075 29.1798 12.5405C30.1332 12.6628 30.0182 13.0298 30.7586 13.2292C32.182 13.5962 31.5664 13.7479 31.7524 14.0856C31.7977 14.1688 31.6484 14.3755 32.0535 14.4722C32.7131 14.63 32.8123 14.904 32.7939 15.2942C32.7939 15.3615 32.8135 15.4007 32.1563 15.7554C32.0339 15.824 31.2457 15.857 31.0034 15.4569C30.7402 15.0239 30.4233 14.9676 30.1785 14.7486C30.2115 14.6838 30.1638 14.6606 30.0439 14.6752C30.0292 14.6214 29.9717 14.5982 29.8701 14.6031C29.7417 14.4863 29.6004 14.3845 29.4491 14.2997C29.2226 14.1969 29.0097 14.3559 28.7759 14.3523C28.2227 14.3437 28.1566 14.4159 28.1028 14.5223C28.0844 14.559 27.9119 14.5749 27.8103 14.5994C27.7858 14.2532 27.0441 14.0697 27.2449 13.8177C27.2669 13.7895 27.3513 13.6782 27.3036 13.6599C26.6329 13.3883 26.5485 13.6415 26.7112 13.7235C26.7041 13.7495 26.7052 13.7772 26.7144 13.8026C26.7236 13.828 26.7405 13.8499 26.7626 13.8654C25.4678 14.181 25.0247 13.6978 24.2586 13.9779C24.0199 14.0648 23.5561 13.9473 23.4276 13.9535C22.9858 13.973 21.6835 14.0281 21.8488 14.1419C22.2233 14.4037 22.2159 14.7645 22.6467 15.0092C22.7055 15.5181 22.3371 15.3909 22.2159 15.8007C22.1376 16.0674 21.3494 15.7689 20.5417 15.7065C20.4193 15.6955 19.8857 15.5169 20.1011 15.3224C20.1757 15.2539 20.5307 15.0398 20.199 15.0288C19.2431 14.9957 18.8943 14.937 18.92 15.2294C18.9335 15.3762 19.155 15.4533 19.2529 15.5695C19.412 15.7567 19.2664 15.9915 18.9262 16.0588C18.3313 16.1885 18.5835 15.9597 17.5591 16.2962C17.3241 16.3732 17.3865 16.6314 17.6337 16.7561C17.881 16.8809 18.1967 16.6937 18.4537 16.5885C19.2113 16.279 19.3325 16.7109 20.0105 16.7109C21.0398 16.6974 20.735 17.0656 21.7472 17.1219C22.4326 17.1611 21.932 16.7769 22.025 16.4956C22.1474 16.1139 21.9699 15.8423 22.4228 16.016C22.7679 16.1469 22.6773 16.1237 23.5891 16.1383L24.4128 16.7182C24.381 17.199 23.736 16.9629 23.5769 17.2186C23.419 17.2296 23.3125 17.265 23.3395 17.3629C23.0714 17.4779 23.3309 17.5721 23.1351 17.7948C22.6786 18.0101 22.5317 18.048 22.927 18.4138C22.785 18.6584 23.3064 18.8701 23.1167 19.0744C22.8487 19.105 22.9943 19.1722 22.8621 19.2053C21.7288 19.2689 21.8047 18.5385 21.7093 18.4713C21.5869 18.3856 21.4082 18.4713 21.2589 18.4578C20.6469 18.4064 20.5967 18.2352 20.352 18.4395C20.1806 18.5814 19.8233 18.5544 19.6678 18.6964C19.2896 19.0389 18.1147 18.574 17.8687 19.0169C17.7586 19.2102 16.99 19.1209 16.9422 18.9007C16.8835 18.6242 17.4024 18.6266 17.5273 18.5581C17.5933 18.5226 17.5946 18.3966 17.4893 18.4076C17.1277 18.4259 16.7655 18.3845 16.4172 18.2853C15.6498 17.232 14.9277 17.681 14.4676 17.3715C14.0404 17.084 13.7198 16.3781 14.1873 16.2705C14.2607 16.2521 14.2093 16.2705 14.0906 16.2497C13.4505 16.1151 13.4016 16.4332 12.4861 16.4503C12.3454 16.4503 12.2413 16.5726 12.2891 16.6546C12.3475 16.7357 12.4126 16.8118 12.4837 16.8821C12.4225 16.9629 12.4384 17.0387 12.5302 17.1085V17.1158C12.2132 17.1366 11.977 17.2724 11.6477 17.2846C11.5706 17.2846 11.5609 17.3592 11.6257 17.3911C12.0161 17.5819 12.2952 17.6198 12.2597 17.8975C12.234 18.1104 12.2597 18.0859 12.1581 18.1043L12.212 18.1116C12.0198 18.1936 11.9794 18.3061 11.988 18.4284C11.3907 18.585 10.6907 18.3306 10.9183 18.7428C10.8547 18.7771 10.8877 18.7869 10.9318 18.8175C10.6111 19.0071 10.1044 19.1062 9.95268 19.379C9.83029 19.609 8.88179 19.401 9.26119 19.0352C9.34441 18.9545 9.5794 18.8945 9.56593 18.771C9.55247 18.6474 9.24283 18.4541 9.04579 18.4333C6.44749 18.1593 8.08504 18.2449 6.3251 18.4138C6.20272 18.426 5.76824 18.5569 5.95794 18.6584C6.68492 19.0597 6.78651 19.2358 7.36907 19.2077C8.15358 19.1698 7.84639 20.0922 9.18041 19.916C8.48525 19.8108 9.40193 19.3472 9.79235 19.7068C10.0126 19.905 9.61489 20.0922 9.89148 20.1191C11.8166 20.3038 11.6747 20.4151 12.2732 20.3931C12.4433 20.3931 12.6183 20.6378 12.5179 20.7773C12.3565 20.9816 12.2322 21.2126 12.1508 21.4599C12.0651 21.7584 11.3246 21.8734 10.9036 21.6617C9.5794 20.9975 9.47537 20.8996 9.44477 20.6525C9.42029 20.4629 9.19265 20.7944 8.60029 20.8152C7.8268 20.8409 8.0165 20.6537 7.59427 21.2605C7.11017 21.2991 6.62326 21.2831 6.14275 21.2128C5.8074 21.1553 4.70714 21.1076 4.92621 21.4366C5.18812 21.8306 5.40597 21.9627 5.00699 21.9688C4.54314 21.9749 4.63003 22.0911 4.28245 22.1768C3.89815 22.2734 2.51517 22.1768 3.40004 21.1247C3.61299 20.8715 2.3781 21.2054 1.62908 21.0855C1.6154 21.1556 1.62926 21.2283 1.66778 21.2884C1.7063 21.3486 1.76651 21.3916 1.83592 21.4085C1.80655 21.5308 1.9118 21.6201 2.08926 21.6923C2.06356 21.8147 2.08926 21.9162 2.33404 21.97C2.33404 22.0703 2.42093 22.1498 2.5629 22.2147C2.5115 22.3847 2.72201 22.3908 2.80034 22.4765C2.82971 22.6942 3.06714 22.8728 3.21033 23.0698C3.22013 23.082 3.28622 23.082 3.3266 23.0881L3.37066 23.131C3.87001 23.1102 4.06338 24.1647 2.51395 23.8833C2.08314 23.805 2.39156 23.394 1.58258 23.3548C1.48956 23.3548 1.31577 23.3989 1.36473 23.46C2.49437 24.8803 2.44052 23.9433 3.54935 24.4387C3.5261 24.5818 3.49427 24.725 3.48448 24.8669C3.47836 24.9537 3.66439 25.0186 3.78556 24.9452C3.96424 24.8363 4.12702 24.7213 4.29591 24.6088C4.53616 24.5935 4.77735 24.6132 5.01188 24.6675C5.59655 24.8873 6.15918 25.1617 6.69227 25.4871C6.77178 25.549 6.86494 25.5909 6.96397 25.6095C7.58937 25.6829 7.22465 25.9765 7.50737 26.1122C7.71665 26.2138 8.14868 26.4046 8.43874 26.3948C9.59775 26.3557 9.44966 26.352 9.41784 26.0841C9.36766 25.7171 9.34074 25.7599 10.4802 25.7673C10.7751 25.9349 10.7249 26.1624 10.8314 26.3606C10.8547 26.4022 10.7421 26.4425 10.6491 26.4315C9.98205 26.3471 10.0763 26.3435 9.85232 26.3912C9.71769 26.4193 9.88047 26.6358 9.99307 26.6738C10.6943 26.9111 10.7274 27.2854 11.2512 27.3282C11.671 27.3601 11.7089 27.5362 11.7567 27.7075C10.6429 28.132 10.2305 27.4286 9.36644 27.7846C9.16328 27.8677 8.89647 27.8372 8.65292 27.8408C8.29677 27.8408 8.37877 27.924 8.24904 27.9632C7.14755 27.9889 6.50991 27.9314 6.07299 28.3106C5.63606 28.6898 5.00821 28.5553 5.00944 28.7583C4.83075 28.8684 4.83075 28.8684 4.98863 29.0116C4.95504 29.0721 4.93664 29.1399 4.935 29.2091C4.93336 29.2783 4.94853 29.3469 4.97921 29.4089C5.0099 29.471 5.05517 29.5247 5.11117 29.5654C5.16716 29.6061 5.23221 29.6327 5.30072 29.6428L5.36681 30.334C5.13182 30.4991 5.15263 30.6667 5.33988 30.838C5.30317 30.9347 5.33376 31.0252 5.45248 31.1035C5.42129 31.1677 5.40955 31.2397 5.41868 31.3105C5.42781 31.3814 5.45742 31.448 5.50388 31.5023C5.35457 31.6307 5.35212 31.7592 5.50388 31.8889C5.47457 31.9278 5.4533 31.9721 5.4413 32.0193C5.4293 32.0665 5.42682 32.1156 5.43399 32.1637C5.44117 32.2119 5.45786 32.2582 5.4831 32.2998C5.50833 32.3415 5.54161 32.3777 5.58099 32.4063C5.49042 32.6791 5.46717 32.947 5.75967 33.1954C5.61158 33.4682 5.63728 33.6615 5.19914 33.719C5.13305 34.1117 5.78782 34.1851 5.33988 35.1686C5.11469 35.1894 4.72794 35.2482 4.63248 35.1796C4.16129 34.8481 3.0598 34.3686 3.12711 33.9551C3.13323 33.9184 3.01329 33.8205 2.91048 33.8327C1.96565 33.9318 2.66571 34.1692 2.03786 34.4946C1.60338 34.7184 2.34138 34.727 2.29487 34.9839C2.24837 35.2408 2.79177 35.6457 2.92028 35.6445C3.53221 35.636 2.77219 35.0475 4.43911 35.1711C4.58475 35.1821 4.79159 35.2347 4.83809 35.2934C4.99597 35.5051 5.3509 35.6262 5.59323 35.7974C5.53693 35.8953 5.51367 35.9895 5.68257 36.0666C5.68257 36.3663 5.7609 36.6672 5.57364 36.9621C5.53326 37.0257 5.68869 37.0636 5.80251 37.0844C5.99955 37.4049 6.38385 36.8984 6.26146 38.1377C5.98731 38.1952 6.00078 38.3065 5.8943 38.6735C5.72785 38.8582 5.86737 39.0283 5.98731 39.1995C5.93102 40.4094 6.23209 40.6553 6.15376 41.3685C6.15376 41.3857 6.19415 41.404 6.21373 41.4224C6.22475 42.2628 6.15376 41.8725 6.09134 42.056C5.76946 43.0555 6.03872 42.998 4.97639 42.9882C4.3412 42.9821 4.34365 42.5331 3.96669 42.6212C3.82962 42.6506 3.65583 43.1619 4.49296 43.2561C5.20526 43.3369 4.77812 43.1558 5.7866 43.2207C6.26024 43.7259 5.72051 44.1198 6.04484 44.4611L5.97875 44.4978L6.05218 44.5296C5.91633 45.0887 5.71561 45.534 6.0326 46.0062C5.57364 46.4564 6.59069 46.4075 6.49278 46.8748C6.38018 47.4167 6.02893 47.2919 6.08278 47.5366C6.15009 47.8449 6.43525 48.0957 6.06564 48.3501C5.60424 48.6682 6.14642 48.8064 6.55519 49.6408C7.13898 50.8384 6.97131 50.8739 7.18671 50.8641C7.49268 50.8494 7.69952 50.6194 7.65179 50.4763C7.51471 50.0714 7.83292 49.9123 8.20865 49.5759C8.63579 49.1955 9.40805 49.8756 8.92829 48.9288C8.65292 48.3868 9.20244 48.2988 9.26853 47.7275C9.34196 47.0938 9.86701 47.2381 9.65405 46.8002C9.47169 46.4246 10.0029 46.2778 10.2905 46.4099C10.8535 46.6668 10.6221 46.9886 10.72 47.1916C10.9856 47.7421 11.0444 48.3098 11.2292 48.8652C11.4066 49.3961 10.7702 49.3117 11.0052 49.5355C11.2696 49.7863 11.1876 50.0909 11.4629 50.3405C11.7383 50.5901 11.5119 50.8298 11.7175 51.2348C12.1924 52.1694 11.2916 51.9394 12.1642 52.8031C12.2523 52.8899 12.8618 52.9915 13.0417 53.0208C13.7761 53.1432 14.0025 54.0986 14.6438 53.8087C15.9582 53.2141 13.967 52.8899 15.1578 52.2306C15.5091 52.0361 16.1688 51.8697 16.5665 52.1082C17.269 52.5303 17.4453 52.129 18.0756 52.4508C18.2567 52.5437 18.4097 52.5058 18.6141 52.4508C19.155 52.3064 19.871 52.5181 19.8636 52.83C19.8539 53.241 20.0399 53.6496 19.904 54.0631C19.8869 54.1145 19.9934 54.1769 20.0436 54.2344C20.1513 54.3947 20.2039 54.5769 20.3838 54.7103C20.5919 54.8656 20.6812 55.01 20.6078 55.1898C20.5221 55.3953 20.7546 55.6143 20.4964 55.8198C20.4303 55.8725 20.7669 56.9527 20.6726 57.0921C20.456 57.4175 20.7681 57.7332 20.7228 58.0524C20.7228 58.0818 20.8513 58.0794 20.8831 58.0378C21.101 57.7417 21.9075 57.6194 21.8916 57.2585C23.3798 56.96 23.5952 57.7662 23.7115 57.8763C24.146 58.2885 24.6 57.4628 23.7482 56.9368C23.4349 56.7435 23.4618 56.2541 24.0689 56.2737C24.2721 56.2798 24.474 56.3031 24.6808 56.3177C24.731 56.3924 24.8375 56.3814 24.9672 56.3716C24.9476 56.3716 24.9342 56.3557 24.9586 56.3263C25.6 55.9887 25.1924 56.1342 26.2131 56.1196C27.0037 56.1086 25.9683 55.6522 27.0882 55.2143C27.8739 55.207 27.6928 55.1911 28.0428 55.2852C28.2656 55.9703 28.1248 55.7244 29.0219 55.7379C29.0978 55.7379 30.072 55.7819 30.0842 55.7464C30.1075 55.6792 29.6755 55.3794 29.1162 55.4883C28.8163 55.5495 28.5458 55.4088 28.2594 55.2877C28.3953 54.9965 28.2937 54.9317 28.5728 54.6931C29.1737 54.6834 29.6265 54.7347 29.2655 54.5121C29.1186 54.276 29.2875 54.2136 28.962 54.1206C28.6046 53.4404 28.9681 53.7879 28.8469 53.1004C28.7931 52.7921 29.2031 52.0532 29.6865 52.025C30.0659 52.003 30.3743 52.1474 30.6595 51.8929C30.9911 51.5993 30.6742 51.3241 31.1086 51.2568C31.5101 51.1944 31.6422 51.3473 31.7659 51.543C31.8466 51.6727 32.1612 51.6103 32.1012 51.4819C31.8907 51.0403 31.9972 50.2084 32.9383 50.2696C33.3875 50.2989 33.833 50.3381 34.2773 50.3797C35.1438 50.4616 34.4841 51.2225 33.751 51.2776C33.6486 51.2923 33.5521 51.3345 33.4719 51.3999C33.1985 51.5848 32.8768 51.6852 32.5467 51.6886C32.4439 51.696 32.4023 51.8036 32.4843 51.8415C32.7988 51.9871 32.9493 52.0275 33.0619 52.4532C33.1109 52.6416 33.8146 52.9756 34.008 52.8263C34.3335 52.5755 34.8647 52.43 35.1523 52.1535C35.4399 51.877 36.5904 52.0581 36.6283 52.6355C36.6589 53.071 36.0592 53.0783 35.4901 53.1615C34.9749 53.2374 35.3861 53.5958 35.6125 53.6778C35.9625 53.8001 35.9172 54.0252 35.9332 54.3433C35.5366 54.6063 35.3653 54.6711 35.4926 54.7323C36.0152 54.977 35.9124 54.8436 35.9576 55.2914C35.3457 55.596 33.8452 55.6841 33.6261 55.1409C33.4658 54.7421 33.2908 54.5488 33.456 54.1206C33.5001 54.0069 33.5172 53.8075 33.2786 53.7879C32.4157 53.7169 32.1771 53.6839 32.1024 53.7524C32.0948 53.7618 32.0894 53.7728 32.0866 53.7846C32.0839 53.7964 32.0839 53.8086 32.0866 53.8204C32.0893 53.8322 32.0947 53.8433 32.1023 53.8527C32.1099 53.8621 32.1196 53.8696 32.1306 53.8747C32.5797 54.1329 32.6654 54.446 32.6201 54.7751C32.4977 55.6033 32.3913 55.5862 32.1869 55.6902C31.69 55.9422 32.9812 56.0572 33.467 55.8712C34.1316 55.618 34.4621 55.952 35.2111 55.9446C35.9601 55.9373 35.823 56.226 36.3493 56.2529C36.5084 56.2615 36.2905 56.2529 36.3982 56.1881C36.8878 55.9189 36.6063 55.355 37.0971 55.2008C37.4985 55.0785 37.9415 55.218 37.9379 55.3966C37.9281 55.8321 38.1337 56.2529 38.1826 56.6799C38.2328 57.0836 38.644 57.1692 39.2633 57.3943C39.688 57.2267 40.0234 57.157 39.9915 56.905C39.9695 56.7312 40.2461 56.3752 40.6488 56.3349C41.8261 56.2199 41.8433 56.5795 41.328 57.1545C41.0514 57.4616 41.1187 57.3747 41.1775 57.5105C41.1163 57.6255 41.2387 57.6867 41.4125 57.7332C41.4871 58.0121 41.3757 58.2066 42.6363 58.3228C42.6737 58.3597 42.7191 58.3877 42.7689 58.4044C42.8188 58.4212 42.8718 58.4263 42.9239 58.4194C42.9399 58.4794 42.9888 58.5002 43.0928 58.4635C43.3193 58.6054 43.4992 58.7767 43.8908 58.8146C44.3302 59.2611 43.8737 59.3993 43.6913 59.3822C43.0916 59.3259 42.4479 59.3577 41.9302 59.1375C41.8844 59.1221 41.8346 59.1235 41.7897 59.1414C41.7449 59.1593 41.7079 59.1927 41.6854 59.2354C41.6377 59.4666 41.6756 59.4935 42.1309 59.4801C42.6914 59.4642 42.5335 59.4727 43.4979 59.7247C43.777 59.7981 43.4979 59.8275 44.3412 59.6746C44.3926 59.5523 44.5248 59.6306 44.6729 59.4825C45.1796 59.474 45.1416 59.4825 45.1135 59.1155C45.242 59.069 45.3166 59.0067 45.3374 58.9247C45.4598 58.9247 45.4941 58.899 45.4598 58.8293C45.6226 58.7595 45.6936 58.6727 45.6238 58.5626C45.9078 58.4672 45.4708 58.4256 44.8467 58.3179C44.6019 57.8628 44.9911 58.0206 45.0094 57.3392C45.0205 56.9576 45.0278 56.5759 45.0351 56.1942C45.4305 55.7049 45.6813 55.6938 45.3546 55.421C45.4072 55.2877 45.3778 55.1666 45.1539 55.0761C45.2175 54.8522 44.7867 54.8926 44.9323 54.8926C44.4244 54.6895 44.198 54.4301 44.3547 54.0925L45.3264 54.0668C45.816 54.1524 45.745 54.2307 46.3202 54.2026C46.6311 54.2674 47.0692 54.5696 47.2614 54.2405C47.6763 54.0228 47.3507 54.057 49.0593 54.1365C50.4435 54.7311 49.0446 54.3812 51.7799 54.3934C51.9107 54.5239 52.0796 54.6096 52.2621 54.6381C52.3025 54.6699 52.3356 54.7274 52.3845 54.7323C53.2596 54.8143 53.2608 54.7152 53.2926 54.4876C53.0899 54.5512 52.8818 54.5963 52.6709 54.6222C53.229 54.5586 53.3808 54.4338 53.4921 54.3665C53.8887 54.3861 53.7173 54.0888 54.273 54.2014C54.2081 54.1329 54.8849 54.5537 54.2803 54.8045C53.8544 54.9819 54.4027 55.103 54.3036 55.4736C54.2338 55.733 54.1494 55.9887 53.781 56.1893C53.4799 56.3532 54.508 56.5673 54.5851 56.467C55.2472 55.6009 54.8298 55.733 55.0061 55.3953C55.3341 54.7506 54.2656 54.7029 55.4956 53.9359C55.5511 53.9525 55.6099 53.9549 55.6665 53.9429C55.7232 53.931 55.7759 53.905 55.82 53.8674C55.9534 53.8674 55.9179 53.8784 55.984 53.816C56.1198 53.8234 56.2287 53.816 56.2104 53.7194C56.2605 53.6912 56.3548 53.6643 56.3548 53.6362C56.3658 53.4233 56.5922 53.2521 56.7219 53.0637C57.6264 53.0404 57.4294 52.9805 57.7549 53.3181C57.7121 53.4661 57.6399 53.6178 57.8944 53.7377L57.8687 53.7879C58.0768 53.8221 57.9348 53.9836 58.209 54.1096C58.5761 54.8094 58.2836 54.5525 58.6239 55.0149C58.887 55.3721 59.4304 54.9611 59.9016 55.3342L59.6996 55.6865C59.3178 55.6963 59.5773 55.9679 60.1892 56.0229L60.2161 56.0633C60.3385 56.0535 60.2296 56.0193 60.8844 56.3936C61.1291 56.7361 60.9786 56.4768 60.915 57.2989C60.9027 57.4567 61.3384 57.5178 61.4045 57.1692C61.5171 56.5575 61.3739 56.6126 61.8353 56.4095C62.3567 56.1795 62.8009 56.4095 63.1265 56.5539C63.3517 56.6493 63.4606 56.4474 63.348 56.3789C62.8866 56.0975 62.6773 56.3924 62.2906 55.9887C62.1486 55.8419 62.0201 55.5079 62.5256 55.3525C62.9197 55.2302 62.8156 55.0614 62.9356 54.9036C63.0017 54.8167 63.3676 54.7898 63.4667 54.8693C63.6467 55.0124 63.8094 55.1617 63.9771 55.3097C64.1448 55.4577 64.8118 55.1935 65.1594 54.8081C65.3907 54.5512 65.3246 54.3995 65.737 54.3555C66.3282 54.2919 66.7443 54.6724 66.3673 54.9134C65.9378 55.1874 65.6012 55.306 65.54 55.4626C65.1459 56.4731 66.6745 55.7342 66.2388 56.5844C66.0063 57.0383 65.4347 57.1007 65.3062 57.1459C65.2655 57.1526 65.2286 57.174 65.2026 57.2061C65.1767 57.2382 65.1635 57.2788 65.1656 57.32C65.1678 57.3612 65.185 57.4002 65.2141 57.4295C65.2432 57.4588 65.2821 57.4763 65.3234 57.4787C66.6537 57.7466 66.4701 57.5937 66.9732 57.4114C67.4052 57.2536 67.5594 57.6916 67.9033 57.831C68.1003 57.9093 67.9988 58.1797 68.0367 58.2665C68.3194 58.9173 67.0845 59.14 68.1052 59.5865C68.9852 59.9731 69.4295 59.6734 69.7673 60.1664C70.012 60.5163 70.93 60.2765 70.7806 60.8722C70.7513 60.9946 71.0254 61.1059 71.1478 61.0839C71.3351 61.0533 71.537 60.9823 71.5309 60.8637C71.5088 60.4037 72.3044 60.296 72.4329 60.23C72.603 60.1431 72.5418 60.1321 72.5234 59.6673C72.5026 59.1706 72.5063 59.1718 73.2247 58.8464C73.8367 58.565 74.8708 58.877 75.0716 58.4928C75.3065 58.039 74.8415 57.8946 75.2674 57.6071C75.7288 57.2976 74.8488 57.3013 75.1168 56.4915C75.6725 54.8167 75.2992 54.6222 75.6615 54.3788C76.2404 53.9897 76.5267 53.7805 76.8168 53.9053C77.485 54.1928 78.0407 54.5525 78.8276 54.3665C79.9805 54.0937 79.8924 55.4088 79.0651 55.3452C78.8925 55.3305 78.1007 55.1495 77.7849 55.5226C77.6233 55.7159 77.5083 55.673 77.0041 55.9202C76.9355 55.9532 76.9416 56.0633 77.0701 56.0425C77.8253 55.9569 78.0725 55.8639 78.294 56.0657C78.6771 56.4009 79.1569 56.1355 79.3674 56.1379C80.1543 56.1489 79.9793 56.4205 80.9584 56.3104C81.1714 56.2859 82.2912 56.6517 82.3585 55.5886C82.372 55.3843 82.5238 55.2094 82.6767 55.032L84.154 54.9941C84.8883 54.9757 85.0902 55.9838 84.974 54.8889C85.5198 54.6087 85.5479 54.0546 84.9666 54.1549C84.1209 54.298 83.553 53.964 82.7024 53.975C82.1603 53.9812 81.9975 53.7854 81.6793 53.4857C81.4259 53.2484 81.6144 53.1297 81.6793 52.8557C81.8543 52.1731 82.9105 51.8697 83.0953 51.9027C84.3486 52.1266 83.8382 52.1327 84.2604 52.4055C84.3583 52.4703 84.5945 52.4985 84.6202 52.3896C84.7928 51.6776 85.4341 52.0006 85.6642 51.4109C85.8013 51.0586 86.3374 51.0684 86.5466 51.1663C86.6548 51.2264 86.7591 51.2934 86.8587 51.3669C86.6814 51.5542 86.4506 51.6823 86.1978 51.7339C86.0106 51.7718 85.838 51.8391 86.0436 51.8929C86.3263 51.9663 86.3508 52.1376 86.5173 52.2538C86.6837 52.37 86.9199 52.4654 87.0949 52.5817C87.3152 52.7285 86.8502 52.8814 87.445 52.9707C87.4866 52.8055 87.4621 52.8667 87.4021 52.808C87.2895 52.6991 87.3177 52.6208 87.4841 52.6208C88.1352 52.6208 88.9442 52.4018 88.9124 52.2465C88.8328 51.8721 88.3249 51.5125 88.0961 51.6556C87.9308 51.7596 87.784 51.9651 87.3519 51.8844C86.8697 51.7951 87.1304 51.4721 87.1879 51.3816C87.5551 51.3216 87.4156 51.0549 87.2944 50.9717C87.3336 50.8959 87.2871 50.8494 87.1463 50.8176C87.0656 50.6476 87.0656 50.6463 86.9101 50.6696C86.483 50.7344 86.1844 50.7919 86.0595 50.5106C85.8857 50.1228 85.685 50.3368 85.477 49.9649C85.3387 49.7203 85.4035 49.1551 85.5994 49.0841C86.1293 48.8982 86.1281 48.563 86.3802 48.6853C87.5514 49.2554 86.6017 49.872 87.0558 50.0775C87.1977 50.3148 87.9455 50.0897 88.1719 50.179C88.5893 50.4751 88.6138 50.3099 88.8928 49.9503C89.2799 50.073 89.6882 50.1147 90.0922 50.0726C90.2236 50.1347 90.3667 50.1681 90.512 50.1705C90.5976 50.2563 90.7138 50.3047 90.8351 50.305C90.8584 50.4274 90.9697 50.5265 91.217 50.5644C91.381 50.7503 91.5731 51.2984 90.9538 51.5088C90.572 51.6434 90.5279 51.8758 90.5695 52.0874C90.6013 52.2477 90.971 52.1963 91.1692 52.2612C91.272 52.2942 91.3663 52.337 91.4703 52.3713C91.5413 52.3933 91.7616 52.3333 91.7701 52.2893C92.0051 51.2849 91.6184 52.3419 91.8925 50.6855C91.928 50.4653 92.1092 50.409 92.5106 49.916L93.0785 49.6273C92.0039 50.1986 92.972 49.5808 93.4199 49.9686C93.7455 50.2488 95.0281 49.9576 95.1407 50.4127C95.3855 51.3914 94.7185 51.4635 95.3206 51.7314C95.6229 51.8672 95.6119 52.1388 95.5213 52.3431C94.262 55.1666 93.978 54.8974 93.4934 54.8889C92.759 54.8754 92.6305 54.6271 92.5143 54.5537C92.0247 54.2393 91.447 54.4118 90.807 54.4937C90.2844 54.561 90.1852 54.4252 89.7654 54.2307C89.4399 54.079 89.2355 54.1916 88.4987 54.3102C88.074 54.3788 87.8464 54.2307 87.6995 54.2001C87.3776 54.1365 86.9848 54.2797 87.0068 54.4509C87.028 54.5353 87.0427 54.6212 87.0509 54.7078C87.0399 55.2131 87.7436 54.8999 87.8697 55.2608C87.8929 55.3293 87.7913 55.9434 88.8488 55.9324C90.2183 55.9165 89.8854 55.9165 89.5427 55.6877C89.3738 55.5764 89.2979 55.5801 89.3359 55.136C89.3359 55.1005 89.4019 55.0455 89.4582 55.0357C89.8597 54.9598 90.1289 54.791 90.4373 54.654C90.6148 54.5733 91.119 54.9843 90.6821 55.2865C90.5475 55.3794 90.9269 55.6755 91.4348 55.6767C92.245 55.6767 92.0186 55.9813 92.037 56.3092C92.0467 56.4719 92.748 56.5832 92.7713 56.456C92.8117 56.1795 93.2058 55.9948 93.4004 55.7599C93.5693 55.5556 93.8801 55.5703 94.7356 55.5532C95.2631 55.5434 95.4565 56.0425 95.093 56.2982C94.7295 56.5539 94.6438 56.5991 94.9192 56.7288C95.4932 57.0016 96.0207 57.5766 96.3878 55.9777C96.4246 55.8223 96.7844 55.4443 97.0952 55.5324C97.4061 55.6204 97.6619 55.7073 97.7072 55.9079C97.7206 55.963 97.8149 55.9911 97.8944 55.9569C97.974 55.9226 98.5064 55.6877 98.4513 55.6339C98.1649 55.3134 98.1392 55.3244 97.8039 55.3317C97.6815 55.3317 97.5297 55.3317 97.4918 55.2608C97.3975 55.0858 96.4074 54.3751 95.9668 54.5341C94.7564 54.9684 94.716 53.9224 95.689 53.887C96.3009 53.8649 96.1541 53.635 96.8908 53.597C97.2299 53.5811 97.5028 53.575 97.4942 53.4747C97.4857 53.3744 97.3412 53.334 96.9276 53.279C95.8909 53.1444 96.7562 51.077 96.6889 51.0023C96.2434 50.5472 97.1503 49.7912 96.6106 48.7722C96.5225 48.9263 96.4796 49.0866 96.4037 49.2432C96.2373 49.5869 95.3426 49.7423 94.8127 49.5209C94.5251 49.3985 94.2289 49.2835 94.0906 49.0866C93.9982 49.0062 93.8948 48.9395 93.7834 48.8884C93.7559 48.6924 93.7559 48.4935 93.7834 48.2975C93.5546 47.5745 93.6072 47.8779 92.4066 47.3286C92.338 47.2981 92.1067 47.3286 92.0908 47.3776C92.0467 47.5232 91.3565 48.1691 90.7568 47.9892C90.3774 47.8767 89.9747 47.8449 89.8756 47.6822C89.6675 47.3396 90.0738 47.2626 89.3261 47.1672C87.9113 46.9861 88.0814 46.9103 87.4413 46.9311C86.5846 46.958 86.7216 46.4796 86.6274 46.2668C86.505 45.9817 86.7498 45.8117 87.199 45.6881C87.6481 45.5646 87.4731 46.1237 88.0557 45.9573C88.1254 45.9365 88.2331 45.9181 88.2503 45.8875C88.4326 45.5597 89.0066 45.5939 89.4558 45.5205C90.0347 45.4251 90.1228 45.8729 90.1534 45.9414C90.1936 45.9498 90.2347 45.9531 90.2758 45.9512C90.2758 45.5988 90.1179 45.3615 90.3431 45.0532C90.3634 45.0261 90.3772 44.9947 90.3833 44.9613C90.3895 44.928 90.3879 44.8937 90.3786 44.8612C90.2746 44.5284 90.6062 44.225 90.6038 43.8984C90.6038 43.7761 90.8339 43.7259 90.971 43.6537C90.9404 43.6464 90.2807 44.1577 91.0676 43.6182C92.4824 43.6892 92.0467 44.044 92.0467 44.3327C92.0382 44.7608 92.8851 44.7449 92.7884 45.1413C92.7517 45.2881 92.7994 45.4312 92.6819 45.5829C92.4372 45.9071 92.4959 46.1567 92.6513 46.1946C92.7578 46.224 92.983 45.9585 92.9708 45.8924C92.9451 45.7628 92.9781 45.5903 93.3024 45.211C93.4052 45.211 93.5044 45.145 93.3722 45.1046L93.7993 44.6813C95.4944 44.7511 95.5629 44.8795 95.5629 45.3664C95.5629 45.4826 95.7306 45.6111 95.383 45.7811C94.9718 45.9866 95.8138 45.8631 95.7734 46.4527C95.749 46.8002 95.6278 47.1415 95.5776 47.4865C95.5593 47.6088 95.3402 47.7397 95.5397 47.8535C95.8114 48.0076 96.0966 47.9538 96.6289 48.2804C96.7819 48.1715 96.8492 48.0443 96.8248 47.9134C96.7807 47.6785 96.9349 47.4351 96.7024 47.2075C96.2006 46.7072 96.9814 46.0992 97.7341 46.1285C97.8993 46.1347 98.0621 46.1481 98.2237 46.1493C98.7132 46.1493 99.1795 45.9181 99.1428 45.66C99.1293 45.5609 99.1868 44.0978 99.8661 43.6452C99.9505 43.5901 99.9885 43.5228 99.9004 43.469C99.7902 43.4005 99.7107 43.4776 99.6299 43.5106C98.619 43.9326 98.1037 42.9931 97.5187 43.2794C96.9337 43.5656 95.6939 43.5791 95.864 43.1228C95.9338 42.9332 95.864 42.6689 96.3756 42.5821C96.5616 42.5503 96.6118 42.4597 96.5947 42.3729C96.4343 41.574 96.4515 41.234 96.7085 40.5012C97.0695 39.476 96.1712 40.1807 96.4637 39.0625C97.0328 38.8411 97.2592 38.7983 97.1699 38.6307C97.0304 38.3713 96.7501 38.3713 96.2618 38.3102C96.017 38.041 96.1125 37.9432 96.2495 37.3535C96.3903 37.3535 96.4343 37.3205 96.3952 37.2446C96.64 37.0293 96.64 36.7786 96.6583 36.5486C96.6755 36.195 97.4122 36.0959 97.4991 35.784C97.5358 35.6519 98.067 35.5552 98.3167 35.5393C98.8258 35.5063 98.9347 35.2371 99.051 34.9986C99.1673 34.76 99.4451 34.7662 99.6935 34.623C99.7608 34.5851 99.7792 34.4909 99.6458 34.4799C99.2444 34.4432 98.7254 34.497 98.7108 34.1129C98.6887 33.5575 99.9126 33.6236 99.7168 32.7807C99.636 32.4381 99.9873 32.3305 100.842 31.9035C101.331 31.8497 101.285 31.5365 101.627 31.4313C102.091 31.2845 102.216 31.0203 102.501 30.8123C102.638 30.7132 102.572 30.6044 102.501 30.5016C102.36 30.2569 102.128 30.427 101.522 30.5358ZM41.0698 13.0824C41.7172 13.0971 41.7747 13.6733 40.8935 13.5718C40.4236 13.5277 40.5582 13.0702 41.0698 13.0824ZM21.7851 56.9196C21.7729 56.9013 21.7607 56.8829 21.746 56.8646C21.7594 56.8854 21.7717 56.9013 21.7851 56.9196ZM21.7227 56.8377C21.7093 56.8218 21.697 56.8059 21.6823 56.7912C21.6958 56.8059 21.708 56.8218 21.7215 56.8377H21.7227ZM21.8953 57.2475C21.8965 57.2255 21.8965 57.2034 21.8953 57.1814C21.8947 57.2019 21.8931 57.2223 21.8904 57.2426L21.8953 57.2475ZM21.8953 57.1716C21.8919 57.1476 21.8865 57.1239 21.8794 57.1007C21.8834 57.1225 21.8859 57.1446 21.8867 57.1667L21.8953 57.1716ZM21.8757 57.0897C21.8671 57.0664 21.8598 57.0432 21.85 57.0212C21.8512 57.0383 21.8586 57.0615 21.8671 57.0848L21.8757 57.0897ZM21.8414 57.0077C21.831 56.9857 21.8192 56.9645 21.8059 56.9441C21.8162 56.9647 21.8252 56.986 21.8329 57.0077H21.8414ZM20.1794 19.6065C20.8721 19.5576 21.3641 19.6934 21.5587 19.8512C21.5521 19.9257 21.5304 19.9981 21.4948 20.064C21.4593 20.1298 21.4106 20.1877 21.3519 20.2341C20.6836 20.1949 20.8121 20.3858 20.7008 20.5057C20.5282 20.6892 20.2883 20.4151 20.0105 20.2109C19.6617 19.9601 19.9004 19.6261 20.1794 19.6065ZM16.4258 29.6612C16.4258 29.7908 16.4172 29.9205 16.4123 30.0514C16.1847 30.0795 15.9644 30.1407 15.7171 30.0844C15.2655 29.978 15.3218 29.6367 15.689 29.5193C15.75 29.4958 15.8082 29.4658 15.8628 29.4299C15.8628 29.4299 15.8738 29.5254 16.1614 29.5156C16.2899 29.5694 16.1479 29.633 16.4258 29.6612ZM12.8227 26.7643C12.7469 26.7706 12.6707 26.766 12.5963 26.7508C11.7065 26.664 12.1434 26.122 12.7566 26.2994C12.9977 26.3691 12.9279 26.7239 12.8227 26.7643ZM13.0087 23.5041C12.879 23.5041 12.7101 23.4686 12.7431 23.3524C12.7137 23.4564 12.7517 23.4649 13.0087 23.5041ZM13.1213 23.5041C12.9793 23.5114 13.0515 23.5445 12.7603 23.3083C12.8163 23.2769 12.8639 23.2323 12.8988 23.1784C12.9338 23.1244 12.9551 23.0628 12.961 22.9988C13.3037 22.978 13.5851 22.8863 13.8287 23.1212L13.7993 23.3891C13.6366 23.4662 13.278 23.5836 13.1213 23.498V23.5041ZM15.2019 23.1163C14.9302 23.1322 14.656 23.1334 14.3807 23.1334C14.6536 23.1273 14.9314 23.1212 15.1994 23.1102L15.2019 23.1163ZM12.2719 19.7411C12.0847 19.4854 11.6686 19.5613 11.846 19.1294C12.048 18.6303 12.8508 18.8554 13.0185 18.941C14.2681 19.5723 13.4469 18.267 14.4774 18.3979C14.6563 18.4219 14.8293 18.4787 14.9877 18.5655C15.1211 18.6352 15.3047 18.5655 15.4491 18.6071C15.4491 18.875 15.9387 19.0621 15.8909 19.3411C15.082 19.6567 15.8603 19.7203 14.9008 20.1118C14.7479 20.0844 14.5907 20.0932 14.4419 20.1375C13.803 20.0298 13.6427 20.2072 13.1543 20.2329C12.349 20.2586 12.4518 19.9858 12.2695 19.735L12.2719 19.7411ZM12.3441 22.0055C12.6819 21.9566 12.9487 21.7168 13.3465 21.8587C13.6696 21.981 13.5264 22.1743 13.5019 22.348C13.4774 22.5217 13.7602 22.4557 13.9646 22.611C13.9294 22.6404 13.9068 22.6821 13.9013 22.7276C13.8959 22.773 13.908 22.8189 13.9352 22.8557C13.24 23.016 13.5509 22.611 13.114 22.6343C12.1446 22.6906 12.0369 22.0446 12.3417 21.9994L12.3441 22.0055ZM5.58833 23.2594C5.42186 23.2397 5.25313 23.2638 5.09878 23.3291C5.2518 23.262 5.41968 23.2359 5.58588 23.2533L5.58833 23.2594ZM6.62251 24.095C5.82331 24.3861 5.90899 24.8522 5.11224 24.4852C4.99842 24.4326 5.04003 24.4191 5.10123 24.172C5.182 24.0375 5.2432 24.172 4.91764 23.6497C5.00454 23.4515 4.95803 23.2031 5.95427 23.4307C6.13173 23.6864 6.06809 23.6252 6.28472 23.6387C6.50134 23.6521 6.46952 23.5873 6.78895 23.2655C6.44015 23.6166 6.44872 23.5604 7.0068 23.5359C6.97621 23.5799 6.98967 23.6203 7.04964 23.6582C6.89298 23.887 6.87463 23.9971 6.62006 24.0888L6.62251 24.095ZM7.76928 23.7842L7.85128 23.7524C7.83537 23.6864 7.85128 23.6949 7.85128 23.6949C8.05625 23.6879 8.26077 23.7186 8.45465 23.7855C7.97244 24.013 8.0777 24.0362 7.76683 23.7781L7.76928 23.7842ZM8.8622 24.4999C8.77028 24.4919 8.67906 24.4772 8.58928 24.4558C8.97358 23.9641 9.55981 24.5182 8.85976 24.4938L8.8622 24.4999ZM9.77277 25.1201C9.21835 24.7751 9.4154 24.7397 9.69077 24.7115C9.98817 24.6797 9.99184 24.6822 10.0151 24.5097C10.042 24.3078 10.5365 24.6222 10.8816 24.6247L10.9208 24.9085C10.8547 24.9611 10.7984 25.0161 10.7237 25.0675C10.5132 25.2155 9.98572 25.2461 9.77032 25.114L9.77277 25.1201ZM11.8815 27.9668C12.2487 27.7576 12.7566 27.9362 12.7382 27.765C12.7382 27.7943 12.6929 27.8323 12.6305 27.8555C12.7651 28.1956 12.9695 28.3705 11.9978 28.3204L11.8815 27.9668ZM12.8276 28.9541C12.5449 28.5186 12.9108 28.6898 12.9732 28.5088C13.18 28.5271 13.6329 28.5161 13.6635 28.7877C13.6941 29.0899 12.9793 29.1865 12.8251 28.9479L12.8276 28.9541ZM13.1727 23.783C13.2816 23.6166 12.9059 23.6607 14.1848 23.6142C14.6499 23.9066 14.552 24.4509 14.0233 24.413C13.2535 24.3531 13.0124 24.0191 13.1703 23.7769L13.1727 23.783ZM14.809 25.021C15.0159 25.3574 15.5213 25.6559 15.2876 26.0486C13.9719 25.9422 14.1959 25.9985 13.9413 25.3868C13.6782 24.7409 14.738 24.9048 14.809 25.021ZM17.4844 29.6636C17.247 29.6538 17.1307 29.6245 16.9949 29.7713C17.0485 29.7275 17.1045 29.6867 17.1625 29.6489C17.2323 29.4911 16.7293 29.1596 17.0989 29.1596C17.6337 29.1559 17.2886 29.5168 17.4844 29.6636ZM18.018 29.3627C18.0511 29.3455 18.1159 29.3321 18.1588 29.315C18.1588 29.315 18.0388 29.3517 18.018 29.3602V29.3627ZM17.5016 28.8378C16.2777 29.0324 16.4319 28.5932 16.3829 28.5173C16.2911 28.3766 16.1382 28.2421 16.1002 28.0965C16.0623 27.9509 16.1688 27.7919 16.1002 27.6512C15.9607 27.3356 16.3328 26.7533 17.1895 26.7092C17.6313 26.686 17.668 26.9196 17.81 27.0505C18.242 27.453 19.0681 27.5619 18.8405 28.2568C19.1856 29.2966 18.1062 28.7485 17.5016 28.8378ZM22.7434 19.2518C22.7039 19.2711 22.663 19.2874 22.621 19.3007C22.6642 19.2876 22.7064 19.2713 22.7471 19.2518H22.7434ZM63.7641 22.9658C63.8099 22.9434 63.8579 22.9258 63.9073 22.9132C63.8581 22.9263 63.8101 22.9439 63.7641 22.9658ZM44.9409 28.8501C44.9409 28.8501 44.9409 28.844 44.9409 28.8427C44.9409 28.8415 44.9433 28.8476 44.9409 28.8501ZM53.0124 23.3206C53.0112 23.2986 53.0112 23.2765 53.0124 23.2545C53.0109 23.2765 53.0109 23.2986 53.0124 23.3206ZM52.5289 21.0293C52.4286 21.1907 52.4176 21.2103 52.5265 21.0329L52.5289 21.0293ZM46.5882 25.5361C46.6286 25.7881 46.4903 25.7171 46.8612 25.7403C46.4867 25.7208 46.6299 25.7917 46.5858 25.5397L46.5882 25.5361ZM40.6537 24.1659C40.5076 24.1547 40.3618 24.1916 40.2388 24.2711C40.3624 24.1955 40.5065 24.16 40.6512 24.1696L40.6537 24.1659ZM44.3057 28.2029C44.2874 28.2029 43.3817 28.2139 43.3719 28.2201C43.3792 28.2188 44.2849 28.2091 44.3045 28.2078L44.3057 28.2029ZM48.8989 28.4133C48.9467 28.428 48.9552 28.477 48.9809 28.5112C48.9785 28.5161 48.9393 28.4317 48.8965 28.4182L48.8989 28.4133ZM49.0617 27.3943C49.0299 27.5387 49.0238 27.5705 49.0617 27.3943C49.0446 27.234 49.0446 27.2426 49.0593 27.4029L49.0617 27.3943ZM68.2925 16.3341C68.6217 16.7451 67.9767 16.6913 67.9143 16.5592C67.8029 16.3194 68.1921 16.2056 68.2925 16.3341ZM70.717 19.8916C70.717 19.8916 70.717 19.8916 70.7243 19.8977C70.7317 19.9038 70.7194 19.894 70.7182 19.8916H70.717ZM71.1307 19.6811C71.1507 19.6721 71.1723 19.6671 71.1943 19.6665C71.1728 19.6673 71.1516 19.6723 71.1319 19.6811H71.1307ZM72.9518 17.9599C72.9806 17.9754 73.0109 17.9877 73.0424 17.9966C73.0114 17.9876 72.9814 17.9753 72.953 17.9599H72.9518ZM66.2866 13.3944C67.0209 13.2048 66.6146 12.4732 67.3807 12.5564C68.2374 12.6494 68.6046 12.0267 69.1333 12.4341C70.4796 13.4531 69.8346 14.0403 69.0109 13.7455C67.9547 13.3712 68.536 14.2801 67.262 14.0452L66.3318 13.8776C65.9745 13.8054 65.9353 13.4849 66.2878 13.3944H66.2866ZM60.0227 14.7915C60.0227 14.778 60.0974 14.7584 60.1072 14.7621C60.2981 14.8355 60.2957 14.7388 60.2296 15.4729C60.2296 15.4851 60.1806 15.501 60.1488 15.5083C59.8539 15.5805 60.0742 15.2637 60.0179 15.1952C59.8379 14.9774 59.4769 14.9896 59.3998 15.1621C58.9714 14.9248 59.8747 15.1805 60.024 14.7915H60.0227ZM55.8567 10.3128C55.9485 10.166 56.6546 10.1464 56.7134 10.4743C56.7464 10.6394 56.7917 10.7667 56.602 10.8291C56.3389 10.9171 55.4895 10.9025 55.8567 10.3128ZM50.0432 11.771C50.0163 11.6181 50.3541 11.5484 50.5022 11.404C50.7702 11.1398 50.4851 11.1594 50.3639 11.0945C50.1522 10.9722 50.3982 10.8498 50.5401 10.8914C50.8767 10.9783 50.6442 11.1165 50.7849 11.2022C51.6637 11.7294 51.8032 11.6108 52.1691 11.667C52.6513 11.7404 52.5975 12.1564 52.0786 12.1735C50.7188 12.2237 50.9685 12.4047 50.3774 12.2873C49.2563 12.3741 50.1044 12.1111 50.0432 11.771ZM38.0321 15.0227C38.1386 14.9542 38.469 15.2319 38.1349 15.3493C37.9991 15.3958 37.7176 15.2245 38.0321 15.0227ZM34.7998 16.4907C34.9883 16.5543 35.3567 17.0962 34.9626 17.0791L34.724 17.0669C34.347 16.9702 34.172 17.2051 33.9578 17.0669C33.1011 16.4968 34.3446 16.3353 34.7998 16.487V16.4907ZM31.6667 16.7757C31.6777 16.6607 31.9262 16.531 32.1624 16.5164C33.0803 16.4968 32.8588 16.925 33.6971 17.347C33.8513 17.4241 33.9187 17.555 33.8195 17.648C33.5686 17.8779 33.6971 18.1153 33.7106 18.3501C33.7314 18.6217 33.412 19.0475 32.6324 18.9679C31.8528 18.8884 32.0204 18.4884 31.9543 18.3563C31.8699 18.185 31.5872 18.1434 31.7096 17.6064C31.865 16.947 31.6386 17.0656 31.6667 16.772V16.7757ZM32.4977 19.768C33.0791 19.6359 33.3544 19.916 33.1966 20.135C33.0668 20.3136 32.6018 20.3063 32.3986 20.206C32.1954 20.1056 32.1881 19.8353 32.4977 19.7643V19.768ZM30.0647 20.5852C30.1356 20.321 29.9202 20.3613 28.9779 20.08C28.3928 19.905 27.9584 19.3154 28.5838 19.1808C28.8077 19.1319 29.0452 19.1037 29.2777 19.0683C29.5078 19.138 29.755 19.0829 29.9925 19.0939C30.5787 19.1184 30.5395 19.4218 30.4551 19.5099C30.1797 19.7961 31.0536 19.9821 31.0389 20.6378C31.1686 20.6464 31.373 20.6696 31.3852 20.7406C31.4097 20.8727 31.0462 20.8629 31.0462 20.8629C30.4881 20.5901 30.9642 20.8617 30.0647 20.5815V20.5852ZM31.0438 20.9008C31.0392 20.9366 31.0453 20.9729 31.0611 21.0053C31.077 21.0377 31.102 21.0647 31.1331 21.0831C31.1012 21.0647 31.0755 21.0371 31.0594 21.004C31.0432 20.9708 31.0374 20.9336 31.0425 20.8971L31.0438 20.9008ZM31.9176 48.9618C31.6263 48.9019 31.5345 48.2718 31.9849 48.3085C32.7805 48.3734 33.7057 48.196 33.7498 48.4871C33.997 50.0946 32.8673 49.1563 31.9164 48.9581L31.9176 48.9618ZM43.0072 56.8071C42.5972 56.0731 44.1087 56.0731 44.2861 56.4548C44.6827 57.2928 43.236 57.2034 43.0108 56.8034L43.0072 56.8071ZM50.7519 52.3321C50.7519 51.9516 51.6282 52.0409 51.7726 52.2587C52.1092 52.759 50.7641 52.8484 50.7555 52.3284L50.7519 52.3321ZM67.3501 54.7519C67.1408 54.7176 67.0906 54.5965 67.1053 54.4913C67.1482 54.1928 67.9474 54.2148 67.9094 54.55C67.8543 54.6173 67.7809 54.8204 67.3538 54.7482L67.3501 54.7519ZM79.5387 50.6745C79.8055 50.7136 79.9622 50.9253 79.8239 51.0488C79.6023 51.2387 79.3671 51.4121 79.1201 51.5675C78.8619 51.7351 78.0982 51.4623 78.4605 51.2103C78.9513 50.869 78.7052 50.5485 79.5424 50.6708L79.5387 50.6745ZM78.9561 53.5824C78.2145 53.4784 78.2328 53.6484 77.7702 53.4918C77.2036 53.2998 76.9221 53.2362 77.0628 53.0367C77.1766 52.8753 77.4973 52.8826 77.9354 52.8398C78.4531 52.9413 78.529 53.0429 79.174 52.9266C79.9781 52.786 80.2963 53.7732 78.9561 53.5824ZM79.6097 52.5511C78.8484 52.3162 78.895 51.7779 79.5864 51.8171C80.6757 51.8893 80.3452 52.7798 79.6097 52.5535V52.5511ZM82.6253 50.7234C81.7845 50.6953 81.9999 50.0934 82.6363 49.9967C83.2728 49.9001 83.4074 50.568 82.6253 50.7259V50.7234ZM87.3985 54.6002C87.3985 54.5194 87.5025 54.4522 87.5514 54.4864C87.8207 54.6748 87.4144 54.8351 87.4021 54.6026L87.3985 54.6002ZM89.3799 24.1255C89.3922 24.4375 88.5807 24.4289 88.4559 24.1781C88.2919 23.8552 89.2698 23.6105 89.3799 24.1255ZM87.314 42.6861C86.8489 42.9797 86.0167 42.7497 86.3055 42.3191C86.4132 42.1564 86.5356 41.9961 86.6641 41.8383C86.7449 41.7392 87.1965 41.7001 87.3128 41.7857C87.4964 41.9215 87.5576 42.0964 87.8293 42.2065C87.9725 42.2591 87.4217 42.6176 87.314 42.6861ZM89.0984 38.3628C88.331 38.3322 87.8684 38.3701 87.8403 38.0472C87.7791 37.3658 88.5746 37.7083 89.3713 37.7866C90.0286 37.8526 89.7862 38.4007 89.0984 38.3628ZM98.8466 44.0183C98.9849 44.5235 97.9116 44.5578 97.8675 44.3449C97.7231 43.7124 98.7781 43.7956 98.8405 44.0183H98.8466ZM94.3183 43.2512C94.0861 43.1824 93.8466 43.1413 93.6047 43.1289C93.8433 43.1423 94.0794 43.1834 94.3085 43.2512H94.3183ZM93.3392 40.5097C92.42 40.9917 94.6193 40.5097 93.3318 40.5097H93.3392ZM93.3392 25.3831C93.2749 25.3796 93.2115 25.3991 93.1605 25.4382C93.2089 25.4013 93.2685 25.3819 93.3294 25.3831H93.3392ZM92.7701 38.6576C92.9891 38.2612 93.7296 38.4594 93.803 38.2233C94.0723 37.3425 95.7808 38.468 93.8483 38.3628C93.7553 38.3628 93.6109 38.4423 93.6353 38.4851C93.8226 38.8191 93.8201 39.1677 93.9376 39.5078C94.071 39.8907 93.7332 40.0326 93.5497 40.2271L92.83 40.2565C92.0088 39.5213 92.5253 39.1249 92.7701 38.6576ZM90.5671 38.1462L90.4802 38.1279L90.3859 38.1352C90.3039 37.8575 90.1571 37.8453 91.0236 37.9346C90.5805 37.8893 90.6895 37.8355 90.5671 38.1462ZM91.9745 42.4071C91.7775 42.3252 91.4997 42.324 91.2818 42.2628C91.496 42.3276 91.7738 42.3276 91.9709 42.4071H91.9745ZM92.912 44.8049C92.9072 44.8009 92.9018 44.7976 92.8961 44.7951C92.9006 44.7979 92.9047 44.8012 92.9084 44.8049H92.912Z" fill="#D7E6EA"/>
<path fill-rule="evenodd" clip-rule="evenodd" d="M40.3428 15.0152C40.207 14.9944 40.0418 14.9736 39.9598 15.0348C39.8447 15.1204 40.2168 15.1278 40.3428 15.0152Z" fill="#D7E6EA"/>
<path fill-rule="evenodd" clip-rule="evenodd" d="M35.775 13.6358C35.7649 13.6206 35.728 13.6193 35.775 13.6358Z" fill="#D7E6EA"/>
<path fill-rule="evenodd" clip-rule="evenodd" d="M96.6474 48.7734C96.7698 48.5556 96.9779 48.4883 96.7209 48.3244C96.6364 48.2706 96.6707 48.2804 96.5716 48.3366C96.3745 48.4443 96.541 48.5666 96.6474 48.7734Z" fill="#D7E6EA"/>
<path fill-rule="evenodd" clip-rule="evenodd" d="M52.2964 58.0365L52.2793 58.0463C52.3197 58.0524 52.3319 58.0585 52.2964 58.0365Z" fill="#D7E6EA"/>
<path fill-rule="evenodd" clip-rule="evenodd" d="M52.9109 58.5185C52.9875 58.5504 53.0486 58.611 53.081 58.6873C53.2976 59.3198 52.7139 59.4739 52.6282 59.666C52.5144 59.918 52.8069 60.2092 52.3112 60.3046C51.501 60.4599 51.7299 59.7578 51.1289 59.8152C50.6333 59.8605 50.4766 59.8471 50.3946 60.1553C50.3273 60.4 50.2563 60.4991 50.5048 60.6447C51.3052 61.1218 50.4105 61.2307 50.4032 61.4802C50.3958 61.6882 51.4325 61.1548 51.8008 61.8105C52.0346 62.224 52.0175 62.3255 52.168 62.4944C52.3185 62.6632 52.6943 62.6999 52.835 62.8699C52.8889 62.9348 53.2169 62.9923 53.3796 62.9397C53.5424 62.8871 53.2646 62.8173 53.1642 62.6754C53.0504 62.5103 53.4494 62.3243 53.6256 62.3989C54.043 62.5727 54.5888 62.4882 55.0307 62.6057C55.1092 62.6234 55.1908 62.6234 55.2693 62.6057C57.427 62.0038 55.5031 62.3206 55.5471 61.353C55.5692 60.8502 55.4162 60.7217 55.1041 60.6667C54.2021 60.5089 54.0675 59.6183 55.3317 59.7296C56.0024 59.7883 55.2191 59.3479 56.3304 59.2525C56.8126 59.2121 57.2655 59.091 57.7721 59.1069C58.225 59.1192 58.2017 58.5295 57.8468 58.6494C57.1516 58.888 57.394 59.1938 56.3427 58.8133C56.0648 58.713 55.3917 58.6017 54.9866 58.5148C54.3404 58.3754 55.0086 57.7417 54.3845 57.9215C54.2559 57.9594 54.2278 58.2885 53.7162 58.1833C53.1508 58.061 52.835 58.1417 52.3198 58.061C52.5364 58.2004 52.627 58.3925 52.9109 58.5185Z" fill="#D7E6EA"/>
<path fill-rule="evenodd" clip-rule="evenodd" d="M81.6817 60.5406C81.153 60.3975 81.0343 60.1736 80.5117 60.318C80.2596 60.3865 79.9781 60.4146 79.7284 60.4978C79.1165 60.7009 78.3821 60.1027 79.3992 59.9645C79.5057 59.9498 79.5509 59.9277 79.5216 59.8923C79.431 59.7761 78.529 59.7614 78.8509 59.0934C78.9586 58.872 78.6991 58.8365 77.8436 58.505C77.4018 58.6114 77.0077 58.6824 77.0995 58.7766C77.4226 59.1106 77.2219 59.7981 76.3995 59.7222C76.1779 59.7014 75.4277 60.044 75.2441 59.6868C75.1943 59.5432 75.1057 59.4162 74.9883 59.3198C74.8843 59.2759 74.7681 59.2703 74.6603 59.3038C73.9945 59.6855 74.347 60.0268 74.5991 60.3938C74.7937 60.6764 74.8561 60.6826 75.3849 60.5614C75.612 60.5025 75.8255 60.4003 76.0139 60.2605C76.2746 60.0917 76.9563 60.0427 77.266 60.099C77.5046 60.1418 77.6246 60.0538 77.7751 59.9767C77.9092 59.9086 78.057 59.8719 78.2074 59.8696C78.3578 59.8673 78.5067 59.8993 78.6428 59.9632C79.0283 60.1932 78.6624 60.8391 77.8767 60.7229C77.5878 60.6789 77.0677 60.5088 77.02 60.7095C76.911 61.222 78.3405 60.5529 78.7334 61.0434C78.9782 61.3529 79.4677 61.2661 79.863 61.5034C80.0344 61.6074 80.5557 61.4875 80.8238 61.8472C81.0147 62.1041 80.929 62.0918 81.5189 62.1273C81.5864 62.1331 81.6542 62.1239 81.7177 62.1004C81.7811 62.0769 81.8387 62.0398 81.8861 61.9915C82.2643 61.6098 82.2765 61.6086 81.8861 61.2306C81.432 60.7878 82.2251 60.6887 81.6817 60.5406Z" fill="#D7E6EA"/>
<path fill-rule="evenodd" clip-rule="evenodd" d="M93.4101 60.1529C92.5374 60.4746 92.01 60.2471 90.8179 60.4795C90.6013 60.5211 90.3577 60.5957 89.6307 60.4697C89.3456 60.4208 89.3333 60.2459 89.1963 60.0954C89.0017 59.8825 88.6247 60.0673 88.3738 60.1468C87.7619 60.3376 87.3237 59.9021 87.1499 60.2826C87.1193 60.3511 86.9529 60.6496 87.2221 60.6973C88.2233 60.86 88.1119 61.227 88.8364 61.2331C89.326 61.2331 89.5512 61.5744 90.6588 61.5096C91.0443 61.4876 91.2242 61.6943 91.3564 61.8264C91.5388 62.0075 92.2939 61.9365 92.557 61.7897C92.9328 61.5781 93.5508 61.4655 93.4994 61.079C93.4651 60.8123 93.5753 60.5652 93.8494 60.3376C94 60.2128 93.5471 60.1015 93.4101 60.1529Z" fill="#D7E6EA"/>
<path fill-rule="evenodd" clip-rule="evenodd" d="M82.4651 8.12914C81.8458 8.23557 82.0649 7.97133 80.8631 8.52795C80.7333 8.58789 80.9793 8.75059 81.1458 8.92309C81.2351 9.01728 81.1458 9.14451 81.3649 9.2277C81.628 9.0968 81.8838 8.96346 82.1567 8.83867C82.4896 8.68576 83.1015 8.77017 83.2802 8.99159C83.3267 9.05154 83.3194 9.14451 83.4026 9.1702C83.8028 9.30232 83.8053 9.5372 83.9595 9.72927C84.1137 9.92133 84.4943 9.36226 84.2605 9.10169C84.1859 9.01606 84.192 9.02218 84.2679 7.60677C84.3034 6.9058 84.1529 7.18594 84.2361 6.24152C84.2544 6.02744 84.1773 5.83782 83.8102 5.74118C83.5299 5.66778 83.5752 5.95037 83.3953 6.20849C83.1162 6.61219 83.4871 6.75166 83.4687 7.23243C83.4491 7.67528 82.9216 8.05084 82.4651 8.12914Z" fill="#D7E6EA"/>
<path fill-rule="evenodd" clip-rule="evenodd" d="M105.621 41.574C105.621 41.3795 105.638 41.1972 105.021 41.1654C104.137 41.1201 104.059 40.3359 103.397 41.3195C103.022 41.8761 103.5 41.9923 103.708 42.1416C104.52 42.7251 103.972 42.8756 104.075 43.305C104.212 43.8714 103.249 43.7686 103.634 44.1736C104.136 44.7008 103.994 44.7987 104.476 44.8293C104.766 44.8476 104.987 44.4843 104.966 44.2947C104.869 43.2218 105.533 43.3649 105.19 42.9025C105.012 42.6578 105.039 42.434 105.35 42.2297C105.588 42.0731 105.558 41.9605 105.621 41.574Z" fill="#D7E6EA"/>
<path fill-rule="evenodd" clip-rule="evenodd" d="M65.6808 65.8084C65.4837 65.976 65.0897 66.4616 64.4104 66.1754C64.0432 66.0224 63.3726 66.1374 63.4509 66.3956C63.5047 66.5742 63.9233 66.3662 64.4214 66.4237C64.7311 66.4592 64.9036 66.5228 64.8987 66.6684C64.8792 67.1846 64.9905 67.7058 64.7152 68.2134C64.6833 68.2722 64.8375 68.359 65.0615 68.3199C65.2475 68.2881 65.2879 68.211 65.4678 68.0116C65.5302 67.9419 65.5596 67.9932 65.4678 67.8893C65.332 67.7376 64.8706 66.5338 66.2768 66.8678C66.3097 66.883 66.3442 66.8945 66.3796 66.902C66.4537 66.9114 66.5288 66.9069 66.6011 66.8886C67.557 66.19 66.8398 66.2035 67.6365 65.8977C67.8397 65.8206 68.1359 65.4279 68.1946 65.3288C69.0318 63.9367 68.317 64.5544 67.7797 64.5948C67.4615 64.6193 67.0919 65.0707 67.3857 65.3203C67.6011 65.505 67.3856 66.091 66.6831 66.1595C66.5852 66.1692 66.2817 66.4396 66.1703 66.5081C66.059 66.5766 65.6979 66.5228 65.6502 66.4384C65.5388 66.2414 65.5621 66.0543 65.7652 65.8744C65.7983 65.8463 65.7089 65.7851 65.6808 65.8084Z" fill="#D7E6EA"/>
<path fill-rule="evenodd" clip-rule="evenodd" d="M65.5327 67.9651L65.5682 68.0055C65.5609 67.9785 65.5486 67.9651 65.5327 67.9651Z" fill="#D7E6EA"/>
<path fill-rule="evenodd" clip-rule="evenodd" d="M7.09877 16.0624C7.10856 16.2166 7.55282 16.3548 7.81106 16.2912C9.48043 15.8777 9.19649 17.1757 9.72398 16.8454C9.8729 16.7735 9.99662 16.6584 10.0789 16.5151C10.112 16.4331 10.2919 16.3585 10.2808 16.2863C10.2698 16.2141 10.0826 16.1725 9.96876 16.1187C9.91118 16.0931 9.8622 16.0514 9.82769 15.9987C9.79318 15.946 9.77459 15.8844 9.77416 15.8214C9.71786 15.5547 8.95417 15.5963 8.62127 15.4703C8.62861 15.6416 8.41811 15.6661 7.69235 15.6697C7.34232 15.6697 7.27133 15.5058 7.14283 15.441C6.99719 15.4089 6.84483 15.4325 6.71569 15.507C6.52354 15.6844 7.06939 15.5768 7.09877 16.0624Z" fill="#D7E6EA"/>
<path fill-rule="evenodd" clip-rule="evenodd" d="M8.42275 15.3529C8.66753 15.5462 8.62469 15.4275 8.59654 15.3602C8.56839 15.2929 8.30893 15.2599 8.42275 15.3529Z" fill="#D7E6EA"/>
<path fill-rule="evenodd" clip-rule="evenodd" d="M14.2131 16.257C14.2544 16.2559 14.2955 16.2501 14.3355 16.2399C14.2944 16.2427 14.2535 16.2484 14.2131 16.257Z" fill="#D7E6EA"/>
<path fill-rule="evenodd" clip-rule="evenodd" d="M14.5801 16.1346C14.3109 16.2423 14.2888 16.257 14.6193 16.2129C14.7135 16.1995 14.7294 16.0759 14.5801 16.1346Z" fill="#D7E6EA"/>
<path fill-rule="evenodd" clip-rule="evenodd" d="M36.2699 11.415C35.5465 11.2927 35.7375 11.7184 35.3752 11.6756C35.0582 11.6376 34.7204 11.7208 34.4132 11.6279C34.352 11.6083 34.2297 11.6609 34.2908 11.6976C34.7327 11.9802 34.4879 12.3007 35.0166 12.4817C35.3728 12.6041 35.4597 12.0108 36.1817 12.034C36.9038 12.0572 36.686 11.9985 37.528 12.0915C37.6357 12.1025 37.692 12.0829 37.6945 12.0242C37.6945 12.0034 37.7091 11.9777 37.6945 11.9631C37.2061 11.5226 37.0605 11.5557 36.2699 11.415Z" fill="#D7E6EA"/>
<path fill-rule="evenodd" clip-rule="evenodd" d="M69.2803 69.772C69.525 69.7598 69.5336 69.7488 69.6046 69.6277C69.7343 69.4038 70.547 67.8306 70.1676 67.7083C69.995 67.6508 69.8934 67.6789 68.929 68.0569C68.4713 68.2355 68.896 68.5316 69.104 68.7518C69.5789 69.2533 68.8421 69.7892 69.2803 69.772Z" fill="#D7E6EA"/>
<path fill-rule="evenodd" clip-rule="evenodd" d="M74.2368 65.4182C74.003 65.5001 73.9651 65.7644 74.6309 65.7277C74.4768 65.6572 74.3417 65.5511 74.2368 65.4182Z" fill="#D7E6EA"/>
<path fill-rule="evenodd" clip-rule="evenodd" d="M77.0592 65.6542C76.7617 65.4622 76.5194 65.872 75.4461 65.7252C75.2222 65.7106 74.9974 65.7197 74.7754 65.7521C75.1254 65.8744 76.1535 65.8928 76.4399 66.0384C77.1742 66.4054 77.3382 65.7594 78.048 66.1301C78.1594 66.1888 78.2867 66.1215 78.2647 66.0494C78.119 65.5882 77.6074 66.0078 77.0592 65.6542Z" fill="#D7E6EA"/>
<path fill-rule="evenodd" clip-rule="evenodd" d="M74.7791 65.7521L74.7338 65.735C74.6567 65.7032 74.5869 65.7496 74.7791 65.7521Z" fill="#D7E6EA"/>
<path fill-rule="evenodd" clip-rule="evenodd" d="M51.3725 57.2584C50.5635 57.2303 51.0432 56.982 49.7814 57.0333C49.5171 57.0431 49.7276 57.3208 49.9772 57.371C50.8242 57.541 50.3701 58.1429 51.1485 57.9508C52.0052 57.7404 52.0676 58.1295 52.1092 57.6059C52.1215 57.4089 51.7702 57.2719 51.3725 57.2584Z" fill="#D7E6EA"/>
<path fill-rule="evenodd" clip-rule="evenodd" d="M52.2964 58.0365C52.2242 57.8885 52.0589 57.8726 52.0516 57.9264C52.0357 58.0059 52.2596 58.061 52.2964 58.0365Z" fill="#D7E6EA"/>
<path fill-rule="evenodd" clip-rule="evenodd" d="M85.8174 12.9136C85.8957 13.0922 86.4293 13.0005 86.5125 12.9259C86.5958 12.8512 87.6801 12.0145 87.0694 11.9044C86.2653 11.7588 85.7745 11.6475 85.7501 11.9252C85.7244 12.2261 85.6509 12.346 86.045 12.4145C86.4134 12.4781 85.6791 12.6004 85.8174 12.9136Z" fill="#D7E6EA"/>
<path fill-rule="evenodd" clip-rule="evenodd" d="M84.9374 56.4486C85.8761 56.3825 86.1612 56.3764 86.0841 56.2541C85.914 56.0021 85.4342 55.9091 85.0536 55.6693C85.001 55.8761 84.5163 56.4779 84.9374 56.4486Z" fill="#D7E6EA"/>
<path fill-rule="evenodd" clip-rule="evenodd" d="M85.0596 55.5568C85.0325 55.5064 84.9988 55.4599 84.9593 55.4186C84.8259 55.5837 85.1588 55.7636 85.0596 55.5568Z" fill="#D7E6EA"/>
<path fill-rule="evenodd" clip-rule="evenodd" d="M18.3473 13.8409C17.9067 13.8494 17.5371 13.8115 17.4294 13.5375C17.3572 13.3515 17.1736 13.5228 16.4736 13.5693C16.2019 13.5864 16.1407 13.7516 15.9057 13.7944C14.65 14.0195 16.6841 14.0268 17.4967 14.1993C17.6448 14.2311 18.3069 14.0978 18.526 13.9155C18.4648 13.8886 18.4049 13.8397 18.3473 13.8409Z" fill="#D7E6EA"/>
<path fill-rule="evenodd" clip-rule="evenodd" d="M59.4195 66.9093C59.9335 67.006 59.8172 67.1344 60.3839 67.2592C60.9358 67.0207 60.8514 66.7699 61.5857 66.1582C61.6408 66.1117 61.4413 66.0359 61.3728 66.0432C60.6274 66.1252 60.7143 66.4714 60.0265 66.546C59.4292 66.6145 59.2359 66.8739 59.4195 66.9093Z" fill="#D7E6EA"/>
<path fill-rule="evenodd" clip-rule="evenodd" d="M45.8612 60.4844C46.1328 60.5228 46.3903 60.6288 46.6102 60.7927C47.1083 61.1903 48.025 61.2208 47.7411 60.6508C47.6187 60.4147 47.5746 60.3792 46.8391 60.1749C46.7167 60.1394 46.6114 60.126 45.8024 60.2703C45.7033 60.2887 45.7315 60.4599 45.8612 60.4844Z" fill="#D7E6EA"/>
<path fill-rule="evenodd" clip-rule="evenodd" d="M87.1402 64.2254C87.1537 64.1716 87.0729 64.103 87.0068 64.0553C86.8232 63.9171 86.4255 64.0798 86.483 64.2229C86.6653 64.6658 85.8196 64.9753 86.2933 64.9753C86.9444 64.9753 87.0068 65.182 87.5637 64.9826C88.1205 64.7832 87.0093 64.7502 87.1402 64.2254Z" fill="#D7E6EA"/>
<path fill-rule="evenodd" clip-rule="evenodd" d="M70.985 64.3477C71.1624 64.426 71.3791 64.3734 71.6189 64.3856C72.1782 64.437 72.4304 64.541 72.3386 63.8621C72.3165 63.692 72.5368 63.5844 72.658 63.451C72.6959 63.4082 72.5454 63.3287 72.4304 63.3287C71.9983 63.3287 71.9849 63.451 71.8796 63.7507C71.7988 63.9832 71.45 63.9355 71.2346 63.9868C71.0192 64.0382 70.7402 64.2352 70.985 64.3477Z" fill="#D7E6EA"/>
<path fill-rule="evenodd" clip-rule="evenodd" d="M15.2056 54.9537C14.8262 54.8521 14.7002 55.0222 14.016 55.5776C13.7933 55.7574 14.1861 56.029 14.3147 55.996C15.1934 55.7623 15.3011 55.6999 15.3623 55.5861C15.574 55.1849 15.5361 55.043 15.2056 54.9537Z" fill="#D7E6EA"/>
<path fill-rule="evenodd" clip-rule="evenodd" d="M32.3448 9.47849C32.302 9.4528 31.1589 9.48583 30.7036 9.63508C30.4588 9.71582 31.1846 10.0706 31.9715 9.94091C32.6789 9.81858 32.8809 10.0902 33.2419 9.94091C33.3716 9.88708 33.7731 9.66444 33.3753 9.61917C33.0302 9.57513 32.6349 9.64242 32.3448 9.47849Z" fill="#D7E6EA"/>
<path fill-rule="evenodd" clip-rule="evenodd" d="M40.9864 65.845C41.3609 65.8854 41.5922 66.0481 41.9141 66.1301C42.0475 66.1643 42.2556 66.0616 42.1944 65.9943C42.0273 65.8263 41.9117 65.6141 41.8615 65.3826C41.8101 65.0792 40.9252 65.1869 40.9105 65.4805C40.9056 65.571 40.8481 65.8316 40.9864 65.845Z" fill="#D7E6EA"/>
<path fill-rule="evenodd" clip-rule="evenodd" d="M60.2995 62.8516C59.712 63.3018 61.6078 64.0871 61.199 62.5873C61.155 62.4271 60.5675 62.6461 60.2995 62.8516Z" fill="#D7E6EA"/>
<path fill-rule="evenodd" clip-rule="evenodd" d="M72.6862 62.0723C72.7535 62.1347 73.139 62.06 73.1892 61.8545C73.1342 61.8178 73.0803 61.7395 72.991 61.7322C72.6862 61.6857 72.379 61.6099 72.0461 61.6894C71.6263 61.7909 71.2261 61.452 71.2127 61.6649C71.1943 61.9438 72.1624 61.6001 72.6862 62.0723Z" fill="#D7E6EA"/>
<path fill-rule="evenodd" clip-rule="evenodd" d="M67.809 60.8978C67.9143 60.904 68.0391 60.8171 68.0061 60.7608C67.5532 59.9913 67.6279 60.8526 66.6696 60.6091C66.5129 60.57 66.535 60.5088 66.2327 60.5529C66.147 60.5651 66.1335 60.6752 66.2094 60.7254C66.5594 60.9725 66.5986 60.8257 67.809 60.8978Z" fill="#D7E6EA"/>
<path fill-rule="evenodd" clip-rule="evenodd" d="M100.248 21.0207C99.9885 21.2861 99.6862 21.9039 99.8147 21.9565C100.304 22.1559 100.473 21.5773 100.78 21.1516C100.884 21.0072 100.413 20.8518 100.248 21.0207Z" fill="#D7E6EA"/>
<path fill-rule="evenodd" clip-rule="evenodd" d="M68.421 62.1017C69.7746 61.7921 68.9448 61.7518 68.8004 61.5328C68.7894 61.5169 68.7392 61.5071 68.7062 61.4937C67.754 61.6453 68.011 62.1958 68.421 62.1017Z" fill="#D7E6EA"/>
<path fill-rule="evenodd" clip-rule="evenodd" d="M33.204 58.5026C33.5907 58.0744 32.7315 57.9472 32.5186 57.8909C32.2555 57.8249 32.2089 58.2334 32.6875 58.4903C32.8074 58.5552 33.1195 58.598 33.204 58.5026Z" fill="#D7E6EA"/>
<path fill-rule="evenodd" clip-rule="evenodd" d="M102.281 39.3084C102.291 39.2656 102.3 39.224 102.308 39.186C102.368 38.8337 101.624 38.8178 102.281 39.3084Z" fill="#D7E6EA"/>
<path fill-rule="evenodd" clip-rule="evenodd" d="M102.009 38.8851C102.03 38.8913 102.055 38.8975 102.075 38.9049C102.094 38.9123 102.107 38.9024 102.009 38.8851Z" fill="#D7E6EA"/>
<path fill-rule="evenodd" clip-rule="evenodd" d="M102.178 39.6864C102.226 39.8405 102.232 39.9727 102.393 39.9311C102.516 39.9017 102.715 39.7121 102.403 39.4038C102.261 39.2692 102.287 39.2692 102.178 39.6864Z" fill="#D7E6EA"/>
<path fill-rule="evenodd" clip-rule="evenodd" d="M75.8364 10.5208C75.8398 10.4328 75.8126 10.3463 75.7593 10.2761C75.725 10.2406 75.6467 10.1807 75.6185 10.1856C75.5104 10.1921 75.4053 10.2235 75.3113 10.2773C75.1682 10.4535 75.0923 10.8584 75.2563 10.889C75.8217 10.9844 75.7715 10.9269 75.8364 10.5208Z" fill="#D7E6EA"/>
<path fill-rule="evenodd" clip-rule="evenodd" d="M1.1665 20.8201C1.28422 20.9636 1.45145 21.0579 1.63525 21.0843C1.63892 20.9779 1.6377 20.8922 1.1665 20.8201Z" fill="#D7E6EA"/>
<path fill-rule="evenodd" clip-rule="evenodd" d="M0.0882262 20.6561C0.0160174 20.6622 -0.0635346 20.7784 0.0796591 20.7858C0.446822 20.7968 0.807866 20.7637 1.16646 20.82C0.920463 20.6182 0.512912 20.612 0.0882262 20.6561Z" fill="#D7E6EA"/>
<path fill-rule="evenodd" clip-rule="evenodd" d="M46.1893 11.7772C46.2578 12.2543 46.6544 12.576 46.8465 12.094C46.6299 10.8303 46.1746 11.683 46.1893 11.7772Z" fill="#D7E6EA"/>
<path fill-rule="evenodd" clip-rule="evenodd" d="M59.1379 8.00309C59.0094 8.00309 59.0608 8.12543 59.226 8.60498C59.2603 8.70896 60.3385 8.86188 59.8489 8.56094C59.3692 8.31138 59.4585 7.98964 59.1379 8.00309Z" fill="#D7E6EA"/>
<path fill-rule="evenodd" clip-rule="evenodd" d="M101.193 54.5267C100.826 54.643 100.188 54.7494 100.516 55.1323C100.593 55.2216 101.367 54.7494 101.193 54.5267Z" fill="#D7E6EA"/>
<path fill-rule="evenodd" clip-rule="evenodd" d="M52.5266 68.7138C52.4801 68.7101 52.4338 68.7226 52.3955 68.7491C52.3572 68.7757 52.3292 68.8147 52.3164 68.8595C52.3036 68.9043 52.3066 68.9522 52.3251 68.995C52.3436 69.0378 52.3763 69.0728 52.4177 69.0943C53.3625 69.3316 53.6085 69.7243 53.4494 68.7725C53.4359 68.693 52.671 68.7016 52.5266 68.7138Z" fill="#D7E6EA"/>
<path fill-rule="evenodd" clip-rule="evenodd" d="M89.156 53.3377C89.5929 53.1591 89.85 53.0722 89.0544 53.0172C87.4707 53.093 88.6163 53.5591 89.156 53.3377Z" fill="#D7E6EA"/>
<path fill-rule="evenodd" clip-rule="evenodd" d="M26.5583 8.84475C26.7908 9.13223 28.0061 8.75789 27.6267 8.73954C26.8373 8.70162 26.3992 8.65513 26.5583 8.84475Z" fill="#D7E6EA"/>
<path fill-rule="evenodd" clip-rule="evenodd" d="M43.5114 9.57511C44.2213 9.66197 44.1234 9.63383 43.8419 9.44055C43.748 9.3694 43.649 9.30521 43.5457 9.24848C43.3768 9.16162 43.0182 9.51639 43.5114 9.57511Z" fill="#D7E6EA"/>
<path fill-rule="evenodd" clip-rule="evenodd" d="M45.406 14.0793C45.0927 14.2102 45.3154 14.5332 45.7878 14.4953C46.1734 14.4647 45.6153 13.9949 45.406 14.0793Z" fill="#D7E6EA"/>
<path fill-rule="evenodd" clip-rule="evenodd" d="M4.8112 26.3581C4.70228 26.1624 4.14664 26.0315 4.02914 26.2358C3.86759 26.5171 4.91768 26.5465 4.8112 26.3581Z" fill="#D7E6EA"/>
<path fill-rule="evenodd" clip-rule="evenodd" d="M66.8839 68.545C66.8484 68.7224 67.0699 68.967 67.3942 68.967C67.6696 68.9206 67.6586 68.7138 67.5864 68.6453C67.4162 68.4838 66.8998 68.4594 66.8839 68.545Z" fill="#D7E6EA"/>
<path fill-rule="evenodd" clip-rule="evenodd" d="M77.0787 63.6052C77.3957 63.6578 77.244 62.9592 77.0408 62.9739C76.6479 63.0021 76.8193 63.5611 77.0787 63.6052Z" fill="#D7E6EA"/>
<path fill-rule="evenodd" clip-rule="evenodd" d="M87.1733 62.2008C87.139 62.3598 87.4853 62.4283 87.746 62.2999C87.8195 62.0993 87.3018 61.5928 87.1733 62.2008Z" fill="#D7E6EA"/>
<path fill-rule="evenodd" clip-rule="evenodd" d="M7.52449 14.8183C7.13163 14.5565 6.49154 14.5846 6.53804 14.7155C6.68124 15.1204 7.38374 14.8574 7.52449 14.8183Z" fill="#D7E6EA"/>
<path fill-rule="evenodd" clip-rule="evenodd" d="M61.3617 58.4255C61.3872 58.3949 61.4058 58.3591 61.4161 58.3206C61.4264 58.2822 61.4281 58.2419 61.4213 58.2026C61.4144 58.1634 61.399 58.1261 61.3763 58.0934C61.3535 58.0607 61.3239 58.0333 61.2895 58.0132C61.1671 58.0707 61.0765 58.0255 61.0985 58.3986C61.101 58.4341 61.3066 58.4928 61.3617 58.4255Z" fill="#D7E6EA"/>
<path fill-rule="evenodd" clip-rule="evenodd" d="M49.6186 58.4537C49.7495 58.4757 50.0029 58.3044 49.9405 58.1711C49.4595 58.0341 49.293 58.3986 49.6186 58.4537Z" fill="#D7E6EA"/>
<path fill-rule="evenodd" clip-rule="evenodd" d="M88.6837 17.0986C88.4108 17.2124 88.7106 17.5244 89.0043 17.3873C89.2601 17.2699 88.8538 17.0301 88.6837 17.0986Z" fill="#D7E6EA"/>
<path fill-rule="evenodd" clip-rule="evenodd" d="M88.4866 19.0229C88.3801 19.3899 89.2552 19.1746 88.9663 18.9813C88.7081 18.8101 88.5184 18.7954 88.4866 19.0229Z" fill="#D7E6EA"/>
<path fill-rule="evenodd" clip-rule="evenodd" d="M89.2134 64.8297C89.2611 64.8297 89.3113 64.8419 89.3358 64.8468C90.1753 64.8468 89.5414 64.4774 89.2134 64.8297Z" fill="#D7E6EA"/>
<path fill-rule="evenodd" clip-rule="evenodd" d="M45.6972 64.9398C46.0142 64.8664 45.9995 64.6853 45.7596 64.7098C45.4194 64.7465 45.4928 64.9875 45.6972 64.9398Z" fill="#D7E6EA"/>
<path fill-rule="evenodd" clip-rule="evenodd" d="M101.911 47.1916C101.829 47.1721 101.767 47.1916 101.747 47.2491C101.669 47.4571 101.617 47.5097 101.737 47.5476C101.952 47.6149 101.938 47.4485 101.949 47.38C101.949 47.3666 101.934 47.1965 101.911 47.1916Z" fill="#D7E6EA"/>
<path fill-rule="evenodd" clip-rule="evenodd" d="M3.38044 29.3748C3.37494 29.3774 3.37006 29.3812 3.36611 29.3859C3.36216 29.3906 3.35923 29.396 3.3575 29.4019C3.35578 29.4078 3.35529 29.4139 3.35608 29.42C3.35687 29.4261 3.35891 29.4319 3.36209 29.4371C3.49916 29.5595 3.788 29.535 3.98504 29.6035C4.00147 29.5969 4.01742 29.5891 4.03277 29.5803C3.85776 29.491 3.73537 29.1949 3.38044 29.3748Z" fill="#D7E6EA"/>
<path fill-rule="evenodd" clip-rule="evenodd" d="M40.8373 9.64967C40.7149 9.77934 41.0527 9.96896 41.2669 9.74264C41.3378 9.67046 41.0001 9.47595 40.8373 9.64967Z" fill="#D7E6EA"/>
<path fill-rule="evenodd" clip-rule="evenodd" d="M105.754 39.3096C105.877 39.3561 106.08 39.2374 105.967 39.1762C105.649 39.005 105.303 39.1383 105.754 39.3096Z" fill="#D7E6EA"/>
<path fill-rule="evenodd" clip-rule="evenodd" d="M75.3297 14.3131C75.3995 14.5003 75.8193 14.3376 75.5231 14.181C75.3615 14.0917 75.3052 14.2397 75.3297 14.3131Z" fill="#D7E6EA"/>
<path fill-rule="evenodd" clip-rule="evenodd" d="M68.6012 61.0585L68.6321 61.0227C68.537 61.0252 68.5456 61.0165 68.6012 61.0585Z" fill="#D7E6EA"/>
<path fill-rule="evenodd" clip-rule="evenodd" d="M2.58607 45.7627C2.6852 45.8166 2.66072 45.819 2.75496 45.7163C2.73293 45.5927 2.40493 45.6661 2.58607 45.7627Z" fill="#D7E6EA"/>
<path fill-rule="evenodd" clip-rule="evenodd" d="M9.11564 20.2121C9.18907 20.2121 9.26495 20.2121 9.33838 20.2182C9.33838 20.1827 9.35674 20.1325 9.3188 20.1117C9.21722 20.0543 9.08626 20.0102 9.18295 19.9172C8.88065 20.0738 8.97734 20.1998 9.11564 20.2121Z" fill="#D7E6EA"/>
<path fill-rule="evenodd" clip-rule="evenodd" d="M24.9673 56.374C25.0383 56.3678 24.9967 56.3813 24.9673 56.374Z" fill="#D7E6EA"/>
<path fill-rule="evenodd" clip-rule="evenodd" d="M99.3793 56.1107C99.4201 56.0909 99.4744 56.0675 99.4238 56.0304C99.3731 55.9934 99.3076 56.0181 99.3793 56.1107Z" fill="#D7E6EA"/>
<path fill-rule="evenodd" clip-rule="evenodd" d="M78.1489 66.6812L78.1366 66.6231C78.0834 66.6824 78.0834 66.6725 78.1489 66.6812Z" fill="#D7E6EA"/>
<path fill-rule="evenodd" clip-rule="evenodd" d="M31.04 20.6426C31.04 20.5276 30.6006 20.8616 31.04 20.6426Z" fill="#D7E6EA"/>
<path fill-rule="evenodd" clip-rule="evenodd" d="M41.3489 42.5918C41.3489 42.5845 41.3391 42.571 41.333 42.5624C41.3269 42.5539 41.3453 42.5869 41.3489 42.5918Z" fill="#AED4EC"/>
<path fill-rule="evenodd" clip-rule="evenodd" d="M40.3515 36.8471C40.5301 36.8201 40.7504 36.8776 40.841 36.8324C40.8503 36.8285 40.8605 36.827 40.8705 36.828C40.8806 36.8291 40.8902 36.8327 40.8985 36.8385C40.9463 36.8825 40.983 36.8483 41.027 36.8287C41.1874 36.7541 41.1151 36.9388 41.3391 36.9364C41.7124 36.9364 41.7834 36.989 41.7736 36.8997C41.7491 36.6807 40.5069 36.7051 40.3196 36.7883C40.2878 36.8018 40.3331 36.8507 40.3515 36.8471Z" fill="#AED4EC"/>
<path fill-rule="evenodd" clip-rule="evenodd" d="M42.3172 46.047C42.3107 46.047 42.3081 46.0275 42.3172 46.047Z" fill="#AED4EC"/>
<path d="M35.3628 16.5739C34.555 17.0938 33.7387 17.599 32.926 18.1079C32.1134 18.6168 31.2946 19.1196 30.4783 19.6224L28.0195 21.1198L25.5534 22.6037L25.6538 22.4288C25.6538 23.98 25.6672 25.5312 25.6611 27.0775V29.4018L25.6427 31.7261L25.6158 34.0505C25.6073 34.8261 25.5926 35.6017 25.5779 36.3748C25.5632 37.148 25.5436 37.9273 25.524 38.6992C25.5044 39.4711 25.4861 40.2504 25.4567 41.0235C25.4273 40.2479 25.4078 39.4723 25.3882 38.6992C25.3686 37.926 25.3466 37.1468 25.3343 36.3748C25.3221 35.6029 25.3062 34.8236 25.2976 34.0505L25.2707 31.7261L25.2523 29.4018L25.2462 27.0775C25.2389 25.5263 25.2462 23.9751 25.2535 22.4288V22.3064L25.3527 22.2489L27.8433 20.8054L30.3412 19.3753C31.1759 18.9031 32.0094 18.4272 32.8489 17.9623C33.6885 17.4975 34.5134 17.0314 35.3628 16.5739Z" fill="url(#paint0_linear_3812_724)"/>
<mask id="mask0_3812_724" style="mask-type:luminance" maskUnits="userSpaceOnUse" x="23" y="40" width="5" height="6">
<path d="M25.442 45.5829C26.7689 45.5829 27.8445 44.5077 27.8445 43.1814C27.8445 41.8552 26.7689 40.78 25.442 40.78C24.1152 40.78 23.0396 41.8552 23.0396 43.1814C23.0396 44.5077 24.1152 45.5829 25.442 45.5829Z" fill="white"/>
</mask>
<g mask="url(#mask0_3812_724)">
<path d="M23.0922 40.7783H23.0396V45.5824H23.0922V40.7783Z" fill="#FF5B00"/>
<path d="M23.1447 40.7789H23.092V45.5829H23.1447V40.7789Z" fill="#FF5A00"/>
<path d="M23.1974 40.7789H23.1448V45.5829H23.1974V40.7789Z" fill="#FF5901"/>
<path d="M23.2501 40.7789H23.1975V45.5829H23.2501V40.7789Z" fill="#FF5801"/>
<path d="M23.3026 40.7789H23.25V45.5829H23.3026V40.7789Z" fill="#FF5701"/>
<path d="M23.3554 40.7789H23.3027V45.5829H23.3554V40.7789Z" fill="#FF5601"/>
<path d="M23.4091 40.7789H23.3564V45.5829H23.4091V40.7789Z" fill="#FF5502"/>
<path d="M23.4618 40.7789H23.4092V45.5829H23.4618V40.7789Z" fill="#FF5402"/>
<path d="M23.5143 40.7789H23.4617V45.5829H23.5143V40.7789Z" fill="#FF5302"/>
<path d="M23.567 40.7789H23.5144V45.5829H23.567V40.7789Z" fill="#FF5203"/>
<path d="M23.6195 40.7789H23.5669V45.5829H23.6195V40.7789Z" fill="#FF5103"/>
<path d="M23.6723 40.7789H23.6196V45.5829H23.6723V40.7789Z" fill="#FF5003"/>
<path d="M23.7262 40.7789H23.6736V45.5829H23.7262V40.7789Z" fill="#FF4F03"/>
<path d="M23.7787 40.7789H23.7261V45.5829H23.7787V40.7789Z" fill="#FF4E04"/>
<path d="M23.8314 40.7789H23.7788V45.5829H23.8314V40.7789Z" fill="#FF4D04"/>
<path d="M23.8839 40.7789H23.8313V45.5829H23.8839V40.7789Z" fill="#FF4C04"/>
<path d="M23.9367 40.7789H23.884V45.5829H23.9367V40.7789Z" fill="#FF4B05"/>
<path d="M23.9891 40.7789H23.9365V45.5829H23.9891V40.7789Z" fill="#FF4A05"/>
<path d="M24.0419 40.7789H23.9893V45.5829H24.0419V40.7789Z" fill="#FF4905"/>
<path d="M24.0958 40.7789H24.0432V45.5829H24.0958V40.7789Z" fill="#FF4805"/>
<path d="M24.1483 40.7789H24.0957V45.5829H24.1483V40.7789Z" fill="#FF4706"/>
<path d="M24.2011 40.7789H24.1484V45.5829H24.2011V40.7789Z" fill="#FF4606"/>
<path d="M24.2536 40.7789H24.2009V45.5829H24.2536V40.7789Z" fill="#FF4506"/>
<path d="M24.3063 40.7789H24.2537V45.5829H24.3063V40.7789Z" fill="#FF4407"/>
<path d="M24.3588 40.7789H24.3062V45.5829H24.3588V40.7789Z" fill="#FF4307"/>
<path d="M24.4127 40.7789H24.3601V45.5829H24.4127V40.7789Z" fill="#FF4207"/>
<path d="M24.4652 40.7789H24.4126V45.5829H24.4652V40.7789Z" fill="#FF4108"/>
<path d="M24.518 40.7789H24.4653V45.5829H24.518V40.7789Z" fill="#FF4008"/>
<path d="M24.5707 40.7789H24.5181V45.5829H24.5707V40.7789Z" fill="#FF3F08"/>
<path d="M24.6232 40.7789H24.5706V45.5829H24.6232V40.7789Z" fill="#FF3E08"/>
<path d="M24.6759 40.7789H24.6233V45.5829H24.6759V40.7789Z" fill="#FF3D09"/>
<path d="M24.7284 40.7789H24.6758V45.5829H24.7284V40.7789Z" fill="#FF3C09"/>
<path d="M24.7824 40.7789H24.7297V45.5829H24.7824V40.7789Z" fill="#FF3B09"/>
<path d="M24.8349 40.7789H24.7822V45.5829H24.8349V40.7789Z" fill="#FF3A0A"/>
<path d="M24.8876 40.7789H24.835V45.5829H24.8876V40.7789Z" fill="#FF390A"/>
<path d="M24.9403 40.7789H24.8877V45.5829H24.9403V40.7789Z" fill="#FF380A"/>
<path d="M24.9928 40.7789H24.9402V45.5829H24.9928V40.7789Z" fill="#FF370A"/>
<path d="M25.0455 40.7789H24.9929V45.5829H25.0455V40.7789Z" fill="#FF360B"/>
<path d="M25.098 40.7789H25.0454V45.5829H25.098V40.7789Z" fill="#FF350B"/>
<path d="M25.152 40.7789H25.0994V45.5829H25.152V40.7789Z" fill="#FF340B"/>
<path d="M25.2045 40.7789H25.1519V45.5829H25.2045V40.7789Z" fill="#FF330C"/>
<path d="M25.2572 40.7789H25.2046V45.5829H25.2572V40.7789Z" fill="#FF320C"/>
<path d="M25.3097 40.7789H25.2571V45.5829H25.3097V40.7789Z" fill="#FF310C"/>
<path d="M25.3624 40.7789H25.3098V45.5829H25.3624V40.7789Z" fill="#FF300C"/>
<path d="M25.4152 40.7789H25.3625V45.5829H25.4152V40.7789Z" fill="#FF2F0D"/>
<path d="M25.4689 40.7789H25.4163V45.5829H25.4689V40.7789Z" fill="#FF2E0D"/>
<path d="M25.5216 40.7789H25.469V45.5829H25.5216V40.7789Z" fill="#FF2C0D"/>
<path d="M25.5741 40.7789H25.5215V45.5829H25.5741V40.7789Z" fill="#FF2B0E"/>
<path d="M25.6268 40.7789H25.5742V45.5829H25.6268V40.7789Z" fill="#FF2A0E"/>
<path d="M25.6793 40.7789H25.6267V45.5829H25.6793V40.7789Z" fill="#FF290E"/>
<path d="M25.7321 40.7789H25.6794V45.5829H25.7321V40.7789Z" fill="#FF280E"/>
<path d="M25.7848 40.7789H25.7322V45.5829H25.7848V40.7789Z" fill="#FF270F"/>
<path d="M25.8385 40.7789H25.7859V45.5829H25.8385V40.7789Z" fill="#FF260F"/>
<path d="M25.8913 40.7789H25.8386V45.5829H25.8913V40.7789Z" fill="#FF250F"/>
<path d="M25.9437 40.7789H25.8911V45.5829H25.9437V40.7789Z" fill="#FF2410"/>
<path d="M25.9965 40.7789H25.9438V45.5829H25.9965V40.7789Z" fill="#FF2310"/>
<path d="M26.049 40.7789H25.9963V45.5829H26.049V40.7789Z" fill="#FF2210"/>
<path d="M26.1017 40.7789H26.0491V45.5829H26.1017V40.7789Z" fill="#FF2110"/>
<path d="M26.1554 40.7789H26.1028V45.5829H26.1554V40.7789Z" fill="#FF2011"/>
<path d="M26.2081 40.7789H26.1555V45.5829H26.2081V40.7789Z" fill="#FF1F11"/>
<path d="M26.2609 40.7789H26.2083V45.5829H26.2609V40.7789Z" fill="#FF1E11"/>
<path d="M26.3134 40.7789H26.2607V45.5829H26.3134V40.7789Z" fill="#FF1D12"/>
<path d="M26.3661 40.7789H26.3135V45.5829H26.3661V40.7789Z" fill="#FF1C12"/>
<path d="M26.4186 40.7789H26.366V45.5829H26.4186V40.7789Z" fill="#FF1B12"/>
<path d="M26.4713 40.7789H26.4187V45.5829H26.4713V40.7789Z" fill="#FF1A12"/>
<path d="M26.525 40.7789H26.4724V45.5829H26.525V40.7789Z" fill="#FF1913"/>
<path d="M26.5778 40.7789H26.5251V45.5829H26.5778V40.7789Z" fill="#FF1813"/>
<path d="M26.6303 40.7789H26.5776V45.5829H26.6303V40.7789Z" fill="#FF1713"/>
<path d="M26.683 40.7789H26.6304V45.5829H26.683V40.7789Z" fill="#FF1614"/>
<path d="M26.7357 40.7789H26.6831V45.5829H26.7357V40.7789Z" fill="#FF1514"/>
<path d="M26.7882 40.7789H26.7356V45.5829H26.7882V40.7789Z" fill="#FF1414"/>
<path d="M26.8422 40.7789H26.7896V45.5829H26.8422V40.7789Z" fill="#FF1315"/>
<path d="M26.8947 40.7789H26.842V45.5829H26.8947V40.7789Z" fill="#FF1215"/>
<path d="M26.9474 40.7789H26.8948V45.5829H26.9474V40.7789Z" fill="#FF1115"/>
<path d="M26.9999 40.7789H26.9473V45.5829H26.9999V40.7789Z" fill="#FF1015"/>
<path d="M27.0526 40.7789H27V45.5829H27.0526V40.7789Z" fill="#FF0F16"/>
<path d="M27.1054 40.7789H27.0527V45.5829H27.1054V40.7789Z" fill="#FF0E16"/>
<path d="M27.1579 40.7789H27.1052V45.5829H27.1579V40.7789Z" fill="#FF0D16"/>
<path d="M27.2118 40.7789H27.1592V45.5829H27.2118V40.7789Z" fill="#FF0C17"/>
<path d="M27.2643 40.7789H27.2117V45.5829H27.2643V40.7789Z" fill="#FF0B17"/>
<path d="M27.317 40.7789H27.2644V45.5829H27.317V40.7789Z" fill="#FF0A17"/>
<path d="M27.3695 40.7789H27.3169V45.5829H27.3695V40.7789Z" fill="#FF0917"/>
<path d="M27.4223 40.7789H27.3696V45.5829H27.4223V40.7789Z" fill="#FF0818"/>
<path d="M27.4747 40.7789H27.4221V45.5829H27.4747V40.7789Z" fill="#FF0718"/>
<path d="M27.5275 40.7789H27.4749V45.5829H27.5275V40.7789Z" fill="#FF0618"/>
<path d="M27.5814 40.7789H27.5288V45.5829H27.5814V40.7789Z" fill="#FF0519"/>
<path d="M27.6339 40.7789H27.5813V45.5829H27.6339V40.7789Z" fill="#FF0419"/>
<path d="M27.6867 40.7789H27.634V45.5829H27.6867V40.7789Z" fill="#FF0319"/>
<path d="M27.7391 40.7789H27.6865V45.5829H27.7391V40.7789Z" fill="#FF0219"/>
<path d="M27.7919 40.7789H27.7393V45.5829H27.7919V40.7789Z" fill="#FF011A"/>
<path d="M27.8444 40.7789H27.7917V45.5829H27.8444V40.7789Z" fill="#FF001A"/>
</g>
<path d="M27.8457 43.1839C27.8432 43.7485 27.6461 44.295 27.2876 44.7313C26.9291 45.1676 26.4311 45.4671 25.8775 45.5793C25.3239 45.6915 24.7486 45.6095 24.2484 45.3472C23.7482 45.0849 23.3537 44.6584 23.1314 44.1393C23.0029 43.8361 22.9368 43.5101 22.9368 43.1808C22.9368 42.8515 23.0029 42.5256 23.1314 42.2223C23.3539 41.7028 23.7489 41.276 24.2497 41.0137C24.7506 40.7515 25.3265 40.67 25.8805 40.783C26.4345 40.896 26.9325 41.1966 27.2905 41.6339C27.6485 42.0713 27.8446 42.6188 27.8457 43.1839ZM27.8457 43.1839C27.8434 42.8688 27.7798 42.5572 27.6585 42.2664C27.4755 41.8329 27.1663 41.4646 26.7709 41.2093C26.3756 40.954 25.9125 40.8236 25.442 40.8351C24.8319 40.8548 24.2534 41.1108 23.8288 41.5492C23.4042 41.9875 23.1668 42.5737 23.1668 43.1839C23.1668 43.794 23.4042 44.3802 23.8288 44.8186C24.2534 45.2569 24.8319 45.513 25.442 45.5327C25.7532 45.5389 26.0625 45.4838 26.3523 45.3704C26.6421 45.2571 26.9067 45.0877 27.131 44.8721C27.3556 44.6521 27.5348 44.3903 27.6585 44.1014C27.7797 43.8105 27.8433 43.4989 27.8457 43.1839Z" fill="url(#paint1_linear_3812_724)"/>
<path d="M46.6286 36.031C47.1815 36.031 47.6297 35.583 47.6297 35.0304C47.6297 34.4777 47.1815 34.0297 46.6286 34.0297C46.0757 34.0297 45.6274 34.4777 45.6274 35.0304C45.6274 35.583 46.0757 36.031 46.6286 36.031Z" fill="white"/>
<path d="M34.4315 23.4991L53.1274 12.6224L71.7475 23.4551V27.6512L86.9346 19.1074L53.0001 0L19.0657 19.1074L34.4315 27.7662V23.4991Z" fill="url(#paint2_linear_3812_724)"/>
<path d="M53.0577 15.4141L36.6896 24.9402L36.6418 60.1113C36.6418 60.1113 47.8734 66.9375 51.9403 77.9647V47.6662C50.7569 47.3613 49.7129 46.6622 48.9806 45.6842C48.2483 44.7063 47.8715 43.5079 47.9124 42.2871C47.9533 41.0662 48.4095 39.8958 49.2057 38.969C50.0019 38.0422 51.0904 37.4145 52.2916 37.1895L52.562 37.1381L52.3454 37.3119C51.8593 37.6906 51.4593 38.1683 51.1719 38.7133C50.8845 39.2583 50.7163 39.8581 50.6783 40.473C50.6404 41.0879 50.7336 41.7039 50.9518 42.2801C51.17 42.8562 51.5082 43.3795 51.944 43.8151C52.3799 44.2507 52.9033 44.5888 53.4797 44.8069C54.0562 45.025 54.6724 45.1182 55.2875 45.0803C55.9027 45.0423 56.5028 44.8741 57.048 44.5869C57.5933 44.2996 58.0712 43.8998 58.4501 43.4139L58.6202 43.1961L58.5688 43.4677C58.3637 44.5491 57.831 45.5413 57.0429 46.31C56.2548 47.0787 55.2494 47.5867 54.1629 47.7653V77.9647C54.1629 77.9647 58.936 66.0041 69.3071 60.1113L69.3537 24.9023L53.0577 15.4141Z" fill="url(#paint3_linear_3812_724)"/>
<path d="M50.534 72.4217L50.3284 71.87C50.2941 71.7795 50.2623 71.6865 50.2243 71.596L50.1081 71.3256C50.0285 71.147 49.96 70.9586 49.8743 70.7874L49.621 70.2589C49.2739 69.5591 48.8882 68.8791 48.4656 68.222C47.6141 66.9168 46.6496 65.6887 45.5834 64.552C44.5189 63.4126 43.3798 62.3451 42.1737 61.3566C41.5715 60.8612 40.9498 60.3877 40.3244 59.9278C39.699 59.4678 39.0467 59.0286 38.3907 58.6323L38.2622 58.554V58.4059C38.2536 56.5966 38.2622 54.7873 38.2683 52.978C38.2683 52.0739 38.2793 51.1699 38.2854 50.2646C38.2915 49.3593 38.2952 48.4553 38.3087 47.5512L38.3417 44.8379L38.3882 42.1233C38.4249 40.3152 38.4616 38.5059 38.5253 36.6965C38.5889 38.5059 38.6256 40.3152 38.6636 42.1233L38.7089 44.8379L38.7419 47.5512C38.7554 48.4553 38.7578 49.3606 38.7652 50.2646C38.7725 51.1687 38.7823 52.0739 38.7823 52.978C38.7823 54.7873 38.797 56.5966 38.7884 58.4059L38.6587 58.1796C39.3441 58.598 39.989 59.0445 40.6291 59.5131C41.2692 59.9816 41.8848 60.4722 42.487 60.9811C43.0891 61.49 43.6766 62.0209 44.2457 62.5714C44.8148 63.1219 45.3545 63.6957 45.8783 64.2841C46.4022 64.8725 46.9003 65.4903 47.3678 66.1191C47.8387 66.7529 48.2751 67.4116 48.6749 68.0923L48.9711 68.6049L49.2452 69.1285C49.3407 69.301 49.4227 69.4808 49.5071 69.6582C49.5916 69.8356 49.6797 70.013 49.7519 70.1965C50.0617 70.9201 50.323 71.6635 50.534 72.4217Z" fill="#D7E6EA"/>
<path d="M23.4239 43.1962C23.4648 43.4564 23.5418 43.7096 23.6527 43.9485C23.7622 44.1793 23.909 44.3906 24.0872 44.5736C24.2646 44.7565 24.4715 44.9082 24.6992 45.0226C24.9384 45.1398 25.1937 45.221 25.4567 45.2636C25.1829 45.3054 24.9029 45.2772 24.6429 45.1816C24.3773 45.0856 24.137 44.9304 23.9404 44.7278C23.7443 44.5255 23.5955 44.2824 23.5047 44.0158C23.4107 43.7534 23.3829 43.4719 23.4239 43.1962Z" fill="#D7E6EA"/>
<path d="M33.5711 25.5678C32.592 25.0703 31.6178 24.5642 30.6485 24.0496C29.678 23.5383 28.7124 23.0171 27.7455 22.4984C26.7786 21.9797 25.8154 21.4561 24.8559 20.9228C23.8964 20.3894 22.932 19.8682 21.9774 19.3324L21.5784 19.1073L21.9774 18.8822L23.9747 17.7506L25.9782 16.6288C27.3122 15.8801 28.6548 15.1449 29.9962 14.4072C31.3376 13.6696 32.6887 12.9392 34.035 12.2272C35.3813 11.5153 36.7447 10.7898 38.1117 10.0986C36.8108 10.9085 35.4926 11.6951 34.1806 12.478C32.8686 13.261 31.542 14.0304 30.2189 14.8024C28.8959 15.5743 27.5668 16.3316 26.2328 17.0815L24.233 18.2082L22.2307 19.3287V18.8785C23.1865 19.4168 24.1338 19.9698 25.0848 20.5154C26.0357 21.061 26.9806 21.6164 27.9291 22.1718C28.8776 22.7272 29.82 23.2862 30.7587 23.8527C31.6974 24.4191 32.6386 24.9855 33.5711 25.5678Z" fill="white"/>
<defs>
<linearGradient id="paint0_linear_3812_724" x1="25.2376" y1="28.8085" x2="35.4717" y2="28.8085" gradientUnits="userSpaceOnUse">
<stop stop-color="#0C2840"/>
<stop offset="0.46" stop-color="#07192C"/>
<stop offset="1" stop-color="#0C1220"/>
</linearGradient>
<linearGradient id="paint1_linear_3812_724" x1="22.9331" y1="43.1814" x2="27.9522" y2="43.1814" gradientUnits="userSpaceOnUse">
<stop stop-color="#0C2840"/>
<stop offset="0.46" stop-color="#07192C"/>
<stop offset="1" stop-color="#0C1220"/>
</linearGradient>
<linearGradient id="paint2_linear_3812_724" x1="19.0657" y1="13.8837" x2="86.9346" y2="13.8837" gradientUnits="userSpaceOnUse">
<stop stop-color="#0C2840"/>
<stop offset="0.46" stop-color="#07192C"/>
<stop offset="1" stop-color="#0C1220"/>
</linearGradient>
<linearGradient id="paint3_linear_3812_724" x1="36.6418" y1="46.6912" x2="69.3585" y2="46.6912" gradientUnits="userSpaceOnUse">
<stop stop-color="#0C2840"/>
<stop offset="0.46" stop-color="#07192C"/>
<stop offset="1" stop-color="#0C1220"/>
</linearGradient>
</defs>
</svg>
